<?xml version="1.0" standalone="no"?>
<!DOCTYPE svg PUBLIC "-//W3C//DTD SVG 20010904//EN"
 "http://www.w3.org/TR/2001/REC-SVG-20010904/DTD/svg10.dtd">
<svg version="1.0" xmlns="http://www.w3.org/2000/svg"
 width="396.000000pt" height="630.000000pt" viewBox="0 0 396.000000 630.000000"
 preserveAspectRatio="xMidYMid meet">

<g transform="translate(0.000000,630.000000) scale(0.100000,-0.100000)"
fill="#000000" stroke="none">
<path d="M1710 6105 c0 -64 45 -106 78 -73 24 24 14 66 -21 92 -48 37 -57 33
-57 -19z"/>
<path d="M2145 6134 c-52 -19 -85 -51 -85 -84 0 -34 17 -50 52 -50 49 0 88 59
88 131 0 22 -2 22 -55 3z"/>
<path d="M1843 6068 c-38 -18 -41 -58 -4 -58 16 0 71 48 71 63 0 10 -42 7 -67
-5z"/>
<path d="M1929 6053 c-12 -33 -1 -58 27 -58 23 0 30 30 13 61 -16 31 -27 30
-40 -3z"/>
<path d="M1401 6014 c-13 -29 -1 -54 25 -54 22 0 22 46 0 68 -10 10 -15 8 -25
-14z"/>
<path d="M2786 6024 c-18 -18 -21 -60 -6 -69 19 -12 40 16 40 51 0 37 -10 42
-34 18z"/>
<path d="M1486 6011 c-23 -26 -17 -54 14 -61 29 -8 57 4 82 34 29 35 23 46
-30 46 -36 0 -54 -5 -66 -19z"/>
<path d="M2276 6001 c-19 -21 -21 -42 -5 -58 19 -19 39 -3 39 32 0 41 -12 50
-34 26z"/>
<path d="M1210 5965 c-27 -28 -34 -43 -33 -71 1 -49 32 -81 62 -65 24 14 51
61 51 91 0 22 -29 80 -40 80 -3 0 -21 -16 -40 -35z"/>
<path d="M1763 5963 c-26 -62 -12 -112 83 -300 73 -144 88 -181 92 -230 4 -57
4 -58 -13 -34 -15 19 -70 51 -90 51 -10 0 -5 -41 9 -74 16 -38 45 -52 76 -36
27 14 26 1 -3 -70 -36 -87 -232 -370 -257 -370 -16 0 -32 82 -25 134 7 52 30
105 76 173 l29 42 25 -25 c13 -13 33 -24 44 -24 19 0 81 45 81 59 0 13 -76 34
-99 26 -26 -8 -26 -8 0 50 17 38 20 61 17 110 -8 88 -46 158 -149 270 -49 53
-89 99 -89 101 0 2 9 -1 19 -8 15 -9 24 -8 45 5 21 14 26 25 26 60 0 65 -10
71 -53 32 -20 -19 -37 -43 -37 -55 0 -12 -4 -18 -10 -15 -34 21 12 -55 86
-141 79 -94 100 -133 113 -212 12 -72 2 -122 -34 -171 -15 -20 -43 -59 -63
-88 -20 -29 -40 -52 -43 -53 -4 0 -9 48 -11 108 -3 59 -12 126 -20 148 l-15
42 37 -5 c32 -5 40 -1 63 27 33 38 33 46 5 54 -43 11 -69 6 -93 -19 -14 -13
-25 -19 -26 -12 0 7 -4 33 -8 58 -7 44 -6 45 16 41 31 -6 53 14 53 49 0 27 -1
28 -31 17 -17 -6 -34 -19 -38 -30 -6 -16 -17 -3 -63 70 -31 49 -63 109 -72
133 -12 35 -15 39 -16 18 0 -40 24 -101 63 -155 40 -57 63 -115 54 -138 -6
-15 -9 -15 -29 4 -13 12 -52 38 -88 57 -36 20 -86 51 -112 70 -57 39 -62 34
-13 -11 l35 -33 -55 5 c-51 4 -56 3 -85 -28 -37 -39 -37 -45 -2 -58 70 -28
115 -16 138 37 l17 40 56 -39 c124 -85 175 -167 195 -314 5 -36 4 -37 -13 -22
-21 19 -40 20 -64 2 -18 -14 -43 -73 -34 -83 10 -10 82 19 100 41 17 20 17 19
12 -39 -3 -33 -8 -79 -11 -102 -5 -42 -5 -42 -25 -22 -17 17 -59 27 -59 14 0
-4 7 -20 16 -37 12 -24 21 -29 40 -25 23 4 24 3 24 -62 1 -83 18 -175 68 -363
45 -172 46 -171 -64 -119 -74 35 -126 80 -149 128 -22 46 -15 158 17 272 14
50 21 105 22 161 0 149 -42 238 -135 289 l-44 24 57 -59 c59 -61 97 -130 98
-176 l0 -27 -72 25 c-144 48 -168 81 -195 264 -14 94 -49 218 -59 208 -2 -2 3
-26 11 -54 7 -27 18 -91 24 -142 7 -68 18 -112 40 -158 16 -35 27 -64 24 -64
-9 0 -93 49 -128 75 -37 27 -134 82 -120 68 58 -59 308 -223 340 -223 27 0 83
-22 103 -40 31 -29 28 -66 -16 -197 l-37 -113 -27 43 c-15 23 -40 55 -56 70
-33 32 -242 159 -242 147 0 -12 76 -77 112 -96 45 -23 128 -84 128 -94 0 -5
-15 -4 -32 1 -18 5 -80 12 -138 15 -81 5 -111 10 -132 25 -34 24 -40 3 -8 -26
19 -17 19 -18 -5 -36 -13 -11 -27 -34 -30 -51 l-7 -32 -28 31 c-43 47 -68 129
-80 255 -14 157 -34 228 -76 275 l-35 38 25 -40 c14 -22 32 -67 41 -100 18
-70 32 -265 19 -265 -5 0 -27 28 -49 61 -47 70 -131 154 -170 169 -15 6 -29 9
-31 7 -2 -1 21 -22 51 -45 56 -43 162 -170 203 -241 l22 -41 -36 25 c-25 17
-50 25 -80 25 -41 0 -56 11 -34 25 14 9 12 77 -3 96 -18 23 -98 79 -114 79 -9
0 -13 -17 -13 -64 0 -55 4 -69 26 -95 14 -17 34 -31 45 -31 28 0 23 -17 -7
-24 -32 -8 -166 -68 -161 -72 2 -2 34 7 73 20 168 57 221 47 321 -59 l72 -75
-69 0 c-65 0 -207 -24 -219 -36 -3 -4 19 -3 49 1 53 6 54 6 32 -10 -33 -24
-43 -59 -36 -116 l7 -50 26 17 c55 35 81 67 81 100 0 18 -7 40 -16 48 -14 15
-13 16 8 17 13 0 31 2 41 4 68 13 244 -40 307 -93 l25 -21 -44 11 c-62 16
-167 -4 -242 -43 -83 -44 -111 -78 -33 -40 63 32 138 54 99 30 -11 -7 -25 -20
-32 -28 -13 -17 -17 -81 -7 -118 6 -23 6 -22 51 10 71 50 84 99 37 136 l-27
21 75 0 c71 0 138 -14 138 -29 0 -4 -12 -8 -26 -9 -15 -1 -33 -7 -41 -14 -16
-13 -53 -81 -53 -98 0 -5 22 -10 49 -10 58 0 97 26 109 73 l8 31 30 -30 c28
-26 145 -196 140 -201 -1 -2 -49 11 -107 28 -92 27 -126 31 -299 39 -156 7
-206 12 -248 28 -67 26 -167 101 -262 196 -41 42 -78 76 -82 76 -5 0 13 -25
38 -57 l46 -56 -33 -11 c-30 -10 -79 -64 -79 -87 0 -15 84 -10 107 6 12 8 23
24 25 36 3 18 6 17 37 -15 l35 -36 -31 0 c-27 0 -36 -7 -57 -42 -30 -50 -23
-63 31 -53 50 8 75 28 76 58 0 24 0 24 79 -18 44 -23 79 -46 79 -51 -1 -5 -55
-24 -121 -41 -67 -18 -138 -42 -160 -53 -22 -11 -41 -20 -42 -20 -2 0 -2 17 0
38 3 31 -2 42 -26 66 -25 23 -45 30 -106 39 -41 6 -79 7 -83 3 -4 -4 8 -36 26
-72 53 -102 104 -116 233 -65 113 46 122 47 138 16 19 -36 43 -47 65 -31 17
12 17 14 -3 34 -12 12 -32 22 -44 23 -33 2 28 16 142 33 94 14 181 19 313 17
64 -1 67 -2 57 -20 -14 -26 -13 -31 6 -31 9 0 18 9 21 21 5 18 11 20 42 14 56
-10 153 -45 189 -67 23 -14 31 -25 27 -37 -4 -9 -9 -31 -12 -48 -3 -18 -7 -33
-9 -33 -1 0 -18 9 -37 20 -55 33 -155 69 -236 86 -94 19 -257 20 -331 0 l-55
-14 91 -1 c101 -1 184 -10 184 -20 0 -7 -148 -61 -167 -61 -7 0 -13 8 -13 18
0 26 -20 42 -52 42 -33 0 -34 -3 -7 -41 l20 -29 -39 0 c-126 0 -225 -94 -246
-232 -7 -47 -7 -47 -27 -27 -23 23 -76 25 -107 4 -27 -20 -86 -104 -78 -112
12 -12 111 -15 138 -4 16 6 36 24 47 41 l19 31 7 -47 c12 -81 23 -93 17 -19
-5 68 -4 70 14 53 31 -27 77 -27 113 1 l23 18 -34 21 c-46 28 -83 28 -102 0
-16 -22 -16 -21 -16 20 0 114 100 217 223 228 29 3 71 7 94 9 l42 5 -33 -63
c-19 -34 -36 -75 -40 -92 -4 -20 6 -8 28 35 34 64 34 65 42 35 7 -27 104 -187
104 -171 0 4 -16 37 -35 73 -56 105 -46 171 29 207 64 30 212 15 270 -27 18
-13 17 -15 -17 -41 -42 -33 -100 -119 -150 -228 -41 -90 -84 -154 -147 -222
l-45 -49 -5 34 c-3 22 -11 35 -23 37 -28 6 -32 -26 -6 -54 l24 -26 -40 -34
c-58 -50 -151 -94 -199 -95 -40 -1 -40 -1 -11 -10 34 -10 98 -2 136 17 48 24
189 145 239 205 28 34 74 107 103 163 l51 101 6 -46 c7 -54 32 -94 131 -204
119 -133 146 -185 118 -237 -9 -17 -9 -20 4 -15 12 4 13 -3 9 -39 -4 -42 -2
-47 38 -84 24 -22 47 -40 50 -40 10 0 20 53 20 100 0 43 -33 80 -70 80 -19 0
-21 3 -12 12 32 32 -1 105 -95 208 -149 165 -173 210 -154 296 15 65 51 104
96 104 36 0 152 -74 223 -143 108 -104 242 -315 242 -380 0 -21 6 -84 14 -140
8 -56 20 -140 27 -187 6 -47 11 -107 11 -135 -1 -27 5 -81 14 -120 16 -71 34
-276 37 -420 2 -70 -2 -89 -32 -158 -47 -110 -109 -175 -222 -231 -48 -25
-110 -48 -136 -52 -45 -7 -46 -8 -18 -14 26 -6 28 -8 10 -14 -11 -4 -29 -12
-40 -16 -11 -5 -27 -11 -35 -13 -10 -4 -8 -6 6 -6 12 -1 45 12 75 28 30 15 77
31 104 35 l50 6 -45 -40 c-50 -46 -109 -80 -138 -80 -10 0 -22 -4 -28 -9 -5
-5 -34 -18 -64 -29 -30 -12 -47 -21 -38 -21 10 -1 46 10 80 22 69 26 138 42
123 29 -17 -14 -135 -64 -235 -98 -52 -18 -87 -33 -77 -34 9 0 71 18 137 40
66 22 122 40 125 40 3 0 1 -9 -5 -19 -5 -11 -24 -23 -41 -26 -37 -8 -180 -75
-161 -75 7 0 43 14 79 32 50 24 67 28 73 18 10 -15 45 18 71 67 11 20 38 41
77 61 34 17 91 49 128 72 36 22 71 40 77 40 24 0 -42 -54 -101 -83 -44 -21
-68 -40 -79 -61 -16 -30 -16 -30 18 6 22 23 48 39 71 43 28 5 49 22 93 71 46
53 105 94 132 94 3 0 2 -12 -2 -28 -13 -55 -53 -100 -127 -143 -40 -23 -105
-64 -144 -90 -118 -80 -212 -109 -428 -133 -74 -9 -50 -19 32 -13 45 3 82 2
82 -2 0 -4 -7 -16 -15 -27 -17 -22 -19 -34 -6 -34 5 0 12 11 15 25 4 14 17 30
30 35 13 5 27 13 30 18 3 5 23 13 43 16 21 4 51 9 68 13 l30 6 -40 -49 c-22
-27 -47 -56 -57 -65 -10 -9 -18 -25 -19 -35 0 -11 -3 -13 -6 -7 -3 9 -19 5
-56 -14 -29 -14 -72 -32 -97 -39 l-45 -13 37 2 c21 0 40 -1 43 -5 3 -3 -29
-20 -71 -37 -97 -41 -202 -51 -228 -22 -10 11 -18 33 -18 50 -1 25 -5 31 -17
25 -9 -3 -40 -14 -69 -25 -29 -10 -66 -26 -83 -36 -31 -18 -31 -18 -48 6 -39
59 -47 66 -62 51 -24 -25 -56 -93 -68 -145 -7 -27 -25 -72 -41 -100 -26 -47
-37 -98 -39 -183 -1 -21 -10 -42 -26 -57 -23 -24 -23 -33 1 -17 23 15 36 57
41 131 5 72 31 141 53 141 13 0 23 -111 11 -123 -16 -16 -13 -27 5 -20 14 5
16 0 12 -35 -2 -23 0 -42 4 -42 5 0 8 10 8 21 0 18 2 19 15 9 8 -7 12 -16 9
-21 -3 -5 1 -9 9 -9 22 0 107 -98 107 -123 0 -11 3 -18 6 -14 16 16 -13 65
-76 132 -73 77 -80 95 -55 142 8 15 20 47 25 71 6 23 15 42 21 42 6 0 7 5 4
11 -4 5 -1 24 6 40 9 22 17 29 31 26 10 -3 16 -1 12 4 -8 14 55 67 95 80 27 9
36 9 39 0 3 -8 12 -5 27 9 24 23 29 21 39 -22 6 -25 4 -28 -21 -28 -22 0 -25
-2 -13 -10 8 -5 26 -10 40 -10 15 0 31 -9 38 -21 12 -18 11 -24 -9 -45 -32
-34 -73 -44 -176 -41 -116 4 -114 -2 7 -21 42 -7 45 -10 51 -42 l6 -35 4 34
c4 30 9 35 49 47 24 7 46 12 47 10 5 -5 -98 -107 -105 -104 -4 2 -26 -16 -49
-39 -36 -35 -39 -41 -20 -39 12 1 51 32 86 69 35 37 68 67 73 67 14 0 7 -130
-10 -175 -8 -22 -24 -51 -36 -64 l-21 -24 21 13 c33 20 54 74 70 178 16 109
39 168 59 152 10 -9 12 -7 9 7 -7 24 21 49 86 79 45 21 51 22 57 7 5 -14 7
-13 14 4 5 14 29 28 76 44 37 13 73 24 80 24 6 0 22 11 35 25 14 14 44 41 68
60 24 19 72 60 106 90 35 30 76 63 93 73 l31 18 0 -24 c0 -27 -47 -75 -142
-145 -52 -38 -78 -65 -45 -46 72 42 195 160 202 195 7 30 15 37 124 117 67 49
128 126 138 174 8 42 23 34 16 -10 -15 -111 -47 -159 -121 -183 -20 -6 -41
-16 -47 -21 -6 -6 -4 -7 8 -3 20 8 22 -5 5 -25 -7 -8 3 -1 22 16 37 34 80 59
80 48 0 -16 -24 -90 -33 -102 -7 -9 -6 -17 1 -24 9 -9 15 -7 26 8 8 10 18 15
22 11 11 -10 -9 -42 -27 -43 -22 -1 -49 -15 -44 -24 3 -4 -5 -10 -16 -13 -16
-4 -20 -11 -15 -24 4 -9 4 -14 0 -10 -4 3 -17 -5 -29 -19 -14 -17 -28 -24 -35
-19 -9 5 -11 4 -6 -3 11 -18 27 -15 55 11 l26 22 -25 -29 c-22 -26 -22 -28 -5
-22 11 4 16 4 13 0 -4 -3 3 -14 15 -24 18 -15 19 -20 8 -34 -7 -9 -24 -16 -36
-16 -30 0 -24 -31 8 -45 14 -6 22 -18 21 -33 -1 -30 15 -13 22 23 3 15 9 36
14 46 15 27 12 33 -7 18 -16 -12 -17 -12 -6 2 7 9 9 20 5 25 -4 4 0 3 9 -4 13
-10 20 -7 39 13 13 14 27 25 32 25 15 0 8 -41 -10 -68 -33 -48 -35 -58 -5 -22
l30 34 27 -29 27 -30 -26 39 c-40 62 -35 89 32 150 l31 28 31 -18 c28 -16 30
-22 26 -54 l-6 -35 14 30 c12 26 14 27 21 10 4 -11 3 -21 -3 -23 -11 -4 26
-72 40 -72 13 0 11 13 -7 38 -8 12 -14 30 -12 39 3 14 8 12 31 -12 15 -16 27
-25 27 -18 0 6 -19 27 -41 46 -33 27 -40 38 -35 55 10 29 31 28 58 -3 12 -14
28 -25 35 -25 8 0 11 -5 8 -10 -3 -6 1 -13 9 -16 9 -3 16 -14 16 -24 0 -11 5
-22 11 -26 6 -4 9 -19 5 -35 -5 -28 -4 -29 17 -17 28 16 49 19 41 7 -9 -14 25
-61 38 -53 6 4 8 3 5 -3 -4 -6 4 -27 17 -46 17 -24 21 -37 13 -41 -8 -3 -7 -5
2 -5 11 -1 10 -5 -4 -15 -19 -14 -19 -15 -1 -35 21 -23 36 -20 17 2 -9 11 -7
17 5 28 15 12 16 11 10 -9 -11 -32 44 -83 157 -145 103 -58 156 -114 179 -188
24 -78 32 -129 20 -129 -16 0 -49 60 -56 101 -11 63 -115 164 -206 199 -19 7
-52 27 -72 43 -36 27 -38 27 -38 8 0 -13 5 -18 13 -15 7 2 33 -14 58 -37 60
-56 79 -69 49 -35 l-25 28 25 -7 c57 -17 130 -80 169 -145 29 -48 28 -68 -1
-46 -13 9 -48 32 -78 52 -30 20 -75 52 -100 72 -37 30 -41 31 -20 8 14 -16 57
-49 95 -73 86 -56 135 -101 135 -125 0 -10 5 -17 12 -15 6 1 18 -10 25 -26 13
-25 12 -31 -8 -63 -42 -69 -99 -105 -112 -71 -3 7 -6 5 -6 -6 -1 -10 -11 -22
-23 -27 l-23 -9 23 0 c23 -1 32 -21 10 -21 -9 0 -8 -4 2 -10 11 -7 19 -5 28 8
11 14 14 15 22 2 7 -11 11 -9 19 12 10 27 28 44 37 35 3 -3 1 -15 -6 -26 -9
-17 -8 -21 4 -21 9 0 22 -12 30 -27 19 -35 19 -29 2 20 -12 35 -11 47 12 120
14 45 27 101 29 125 3 23 8 42 11 42 17 0 72 -54 72 -71 0 -11 4 -17 10 -14 6
3 10 1 10 -6 0 -7 2 -10 5 -8 8 8 -19 69 -30 69 -27 0 -77 58 -94 108 -10 28
-16 52 -14 52 2 0 18 -7 36 -17 30 -15 31 -15 17 1 -24 30 -121 100 -215 156
-49 29 -101 62 -114 72 -13 10 -27 15 -32 12 -5 -3 -9 3 -9 13 0 15 -2 16 -10
3 -8 -12 -10 -9 -10 13 0 15 -6 30 -13 33 -15 5 -19 34 -5 34 5 0 0 11 -11 25
-11 14 -23 40 -27 58 -9 42 -43 107 -100 186 -25 35 -42 66 -39 69 3 3 10 1
16 -5 6 -6 18 -9 27 -6 10 4 13 2 8 -5 -3 -6 -2 -14 4 -17 6 -4 38 -48 72 -98
78 -116 127 -162 231 -212 52 -26 86 -49 94 -65 11 -22 13 -23 13 -5 0 12 -6
27 -12 34 -11 10 6 12 92 7 134 -8 140 -9 140 -17 0 -4 -6 -10 -12 -12 -10 -4
-10 -6 0 -6 7 -1 17 -13 22 -27 6 -14 14 -23 19 -19 6 3 4 17 -5 33 -12 24
-12 27 2 30 22 5 71 -17 78 -34 3 -8 12 -14 21 -14 17 0 19 -9 6 -43 -7 -19
-6 -27 4 -30 9 -4 14 6 17 35 3 37 0 43 -34 71 -20 16 -35 34 -32 38 9 16 118
10 142 -7 23 -16 30 -6 10 14 -19 19 111 16 158 -4 22 -9 59 -34 83 -57 45
-43 46 -37 3 22 -28 38 -92 70 -140 71 -41 0 -35 12 23 46 42 24 62 31 92 33
7 1 10 7 7 14 -3 8 5 18 18 25 14 6 17 11 8 11 -8 0 -66 -26 -129 -59 -117
-61 -142 -71 -122 -46 7 9 -3 7 -28 -6 -30 -14 -63 -20 -130 -21 -80 -2 -92 0
-105 18 -14 19 -14 19 -13 1 2 -18 -4 -20 -48 -17 -146 8 -273 54 -321 117
-13 17 -24 33 -24 36 0 3 21 -5 48 -18 45 -21 161 -42 131 -23 -8 5 -28 9 -46
9 -37 0 -63 9 -63 21 0 5 8 9 18 10 11 0 12 2 4 6 -7 3 -19 -1 -27 -7 -20 -16
-76 26 -112 83 -14 23 -34 52 -45 64 -11 12 -17 26 -14 31 3 6 -5 13 -19 16
-14 4 -25 11 -25 16 0 5 -16 2 -35 -6 -19 -7 -48 -14 -65 -14 l-31 0 16 -30
c8 -16 15 -32 15 -35 0 -13 -80 49 -85 66 -4 11 -11 19 -17 19 -6 0 -7 -5 -2
-13 5 -7 1 -4 -8 6 -13 14 -18 15 -19 6 0 -8 -4 -4 -10 9 -5 13 -13 20 -19 17
-6 -3 -10 4 -10 17 0 13 -2 60 -5 105 -4 95 8 109 25 29 13 -62 49 -143 50
-112 0 11 -8 29 -18 40 -17 21 -17 21 5 2 17 -14 23 -30 23 -58 0 -21 5 -38
10 -38 17 0 11 72 -7 93 -18 19 -17 19 5 6 24 -15 38 -50 29 -74 -9 -21 20
-45 53 -45 33 0 80 19 80 32 0 11 -7 10 -46 -4 -39 -14 -69 3 -60 35 3 12 -4
28 -19 43 -28 28 -25 30 16 8 29 -14 28 -12 -15 41 -30 36 -51 75 -61 113 -9
31 -18 62 -20 69 -2 6 -1 14 2 17 3 3 20 -23 38 -58 38 -75 92 -136 122 -139
12 0 20 -4 17 -8 -2 -4 5 -9 16 -12 11 -3 23 -1 26 4 3 5 11 9 17 9 7 0 6 -4
-3 -10 -8 -5 -11 -12 -7 -17 4 -4 17 -2 27 5 15 9 18 9 14 -1 -3 -8 1 -14 8
-15 68 -7 86 -9 95 -15 6 -4 23 -8 37 -9 14 -1 28 -8 30 -15 3 -7 12 -13 20
-13 8 0 23 -11 34 -25 11 -14 28 -25 37 -25 15 0 13 5 -9 25 -39 36 -33 46 22
38 67 -9 91 -19 103 -47 7 -14 23 -26 38 -29 l26 -5 -27 22 c-32 25 -35 36
-11 36 9 0 116 -34 238 -75 121 -40 245 -77 275 -80 50 -5 47 -3 -35 19 -161
45 -202 66 -155 81 11 3 25 15 30 26 11 19 10 19 -22 -1 -42 -26 -81 -24 -143
4 -49 23 -49 24 -25 34 20 8 14 9 -31 5 -45 -4 -72 0 -145 25 -49 17 -106 33
-126 37 -47 9 -49 21 -5 30 17 3 42 11 54 17 17 8 28 6 55 -13 32 -22 33 -22
14 -1 -11 12 -36 27 -57 34 -40 12 -43 27 -6 29 13 1 16 3 7 5 -8 3 -35 -2
-60 -10 -42 -13 -43 -14 -15 -16 37 -2 72 -15 59 -22 -5 -2 -63 -4 -129 -3
-106 1 -126 4 -175 27 -30 14 -68 40 -85 58 l-30 32 33 -7 c48 -10 39 3 -11
16 -39 9 -48 18 -95 93 -62 98 -95 178 -128 306 -22 85 -24 116 -24 303 0 115
-5 227 -11 251 -14 55 4 430 25 503 31 114 75 190 155 266 42 40 97 87 122
104 l46 32 33 -70 c56 -118 133 -182 218 -182 84 0 124 53 120 155 -4 74 -31
125 -64 121 -11 -1 -13 0 -6 3 21 9 14 21 -24 39 -30 14 -38 15 -45 4 -7 -11
-9 -11 -9 2 0 11 20 24 58 38 32 12 66 31 75 42 9 10 27 19 39 19 13 1 34 7
48 15 14 8 35 14 48 15 12 0 22 6 22 14 0 17 70 46 129 53 41 4 49 2 73 -24
31 -33 48 -89 48 -160 0 -82 -18 -145 -74 -266 -70 -147 -89 -209 -90 -285 -1
-51 -4 -61 -16 -56 -8 4 -30 9 -48 12 -28 4 -38 -2 -80 -44 l-47 -48 30 -7
c81 -18 155 -1 155 37 0 25 14 15 36 -25 14 -26 18 -43 11 -50 -27 -27 35
-101 85 -101 14 0 16 6 12 33 -9 45 -30 76 -58 83 -19 4 -26 17 -40 74 -14 61
-22 164 -9 132 4 -11 54 -42 68 -42 3 0 5 13 5 28 0 33 -32 67 -55 59 -20 -8
-19 6 6 54 l20 40 20 -25 c16 -20 29 -26 57 -25 20 0 45 4 55 8 17 6 14 11
-22 44 -44 40 -52 42 -82 27 -15 -8 -7 13 32 89 39 76 52 113 56 160 l6 61 27
-44 c31 -49 68 -79 155 -127 156 -85 218 -187 170 -279 -9 -17 -13 -30 -9 -30
10 0 43 44 44 58 0 14 16 16 25 2 8 -12 72 -13 79 -1 11 17 -42 54 -69 48 -19
-3 -28 0 -32 12 -27 84 -56 116 -185 201 -114 76 -141 101 -179 166 -48 84
-44 89 64 102 51 6 129 25 175 42 101 37 111 37 105 6 -5 -24 26 -56 54 -56
18 0 16 41 -3 69 -16 23 -16 23 7 17 l24 -7 -25 15 c-40 24 -83 19 -216 -26
-157 -52 -181 -49 -234 29 -19 28 -45 57 -58 64 -23 13 -23 13 15 33 21 10 53
25 70 33 l33 13 -10 -26 c-12 -31 9 -77 42 -95 29 -16 121 -40 127 -33 8 8
-19 98 -38 124 -10 14 -33 30 -52 37 l-34 11 28 11 c63 24 77 25 77 2 0 -30
25 -77 52 -95 12 -9 38 -16 56 -16 l34 0 -7 43 c-10 58 -19 72 -56 87 -28 12
-30 15 -13 21 17 7 17 8 -3 8 -12 1 -24 -3 -27 -8 -3 -5 -40 -12 -82 -16 -71
-6 -91 -14 -252 -97 l-176 -89 -41 15 c-23 9 -57 32 -76 52 -33 35 -33 35 -8
29 32 -8 133 31 183 72 39 30 45 43 21 43 -8 0 -15 -4 -15 -10 0 -5 -8 -10
-17 -10 -15 0 -16 2 -3 10 12 8 11 10 -7 10 -12 0 -38 -16 -58 -37 -19 -20
-35 -30 -35 -24 0 7 15 28 34 47 22 22 29 34 19 34 -30 0 -72 34 -75 59 -2 21
-10 27 -38 32 l-35 6 33 2 c17 0 32 5 32 9 0 4 -17 7 -37 5 -36 -2 -37 -2 -8
6 31 9 32 10 2 16 -11 2 -22 7 -25 11 -4 4 9 4 28 0 54 -12 63 -12 67 0 5 15
-108 74 -141 74 -14 0 -26 -3 -26 -6 0 -9 20 -44 68 -123 38 -60 47 -70 53
-55 6 14 7 11 6 -11 -1 -16 2 -48 6 -70 6 -38 5 -37 -11 10 -14 40 -22 51 -42
53 -21 2 -30 -5 -48 -40 -21 -39 -22 -32 -6 22 6 17 2 20 -29 20 -19 0 -48 -3
-65 -6 -27 -5 -30 -9 -26 -38 l4 -31 -13 30 c-8 17 -10 32 -5 33 4 2 8 9 8 16
0 9 18 12 63 10 72 -3 119 5 111 17 -3 5 -45 9 -93 8 -87 -1 -88 -2 -106 -31
-10 -18 -14 -33 -8 -37 6 -3 13 -22 16 -41 5 -25 4 -31 -3 -20 -5 8 -10 24
-11 35 l0 20 -10 -20 c-7 -15 -8 -8 -5 25 4 41 3 43 -10 26 -8 -11 -14 -24
-14 -28 0 -5 -8 -8 -17 -6 -14 2 -18 -5 -19 -40 -1 -24 -6 -47 -10 -50 -4 -4
-4 8 -1 26 5 22 3 31 -4 27 -11 -7 15 61 32 81 5 7 7 25 4 41 -4 24 -3 23 8
-6 15 -38 25 -32 36 23 7 31 7 31 86 36 l80 5 -55 7 c-57 8 -109 0 -149 -21
-26 -15 -45 -4 -18 10 9 6 17 16 17 23 0 17 63 82 108 110 84 52 120 58 387
62 267 3 325 8 366 30 37 18 78 70 105 129 12 28 29 59 38 70 14 18 15 18 16
3 0 -30 44 -51 90 -43 22 4 40 11 40 17 0 5 -13 23 -30 39 -24 25 -37 30 -67
27 -34 -3 -42 -10 -96 -86 -32 -46 -77 -95 -99 -110 -36 -23 -52 -27 -117 -27
-42 0 -111 4 -154 8 l-78 9 35 38 c19 21 56 75 81 119 26 45 50 81 55 81 4 0
13 -7 20 -15 17 -21 57 -19 96 6 19 11 34 22 34 25 0 9 -61 34 -85 34 -14 0
-25 4 -25 9 0 12 90 111 100 111 5 0 10 -10 12 -22 3 -25 33 -34 77 -23 l26 7
-28 24 c-15 13 -38 24 -49 24 -18 0 -12 9 33 54 51 51 54 53 64 32 11 -22 70
-35 86 -19 14 14 -36 56 -66 56 -19 0 -25 4 -23 16 2 11 18 18 53 21 65 7 90
22 104 61 16 48 15 49 -44 49 -61 0 -89 -19 -101 -67 -9 -36 -44 -91 -78 -122
l-26 -24 0 39 c0 29 -8 49 -31 77 -17 20 -34 37 -39 37 -5 0 -17 -24 -26 -54
-14 -46 -15 -59 -5 -85 7 -16 24 -34 37 -38 22 -8 21 -10 -32 -65 -31 -32 -57
-58 -58 -58 -1 0 2 23 8 50 14 69 -5 180 -49 283 -6 15 -4 17 17 12 33 -8 74
9 94 40 15 23 37 163 28 174 -9 10 -98 -34 -129 -64 -29 -27 -35 -39 -35 -75
0 -39 -2 -41 -17 -29 -14 12 -16 12 -10 -1 3 -8 17 -42 31 -75 60 -145 57
-247 -12 -400 l-37 -79 -7 48 c-9 62 -47 120 -103 155 -52 33 -91 31 -107 -5
-11 -24 -5 -54 11 -54 20 0 49 41 43 62 -5 20 -4 20 15 7 28 -20 67 -68 88
-108 22 -44 16 -142 -12 -180 -32 -43 -98 -69 -198 -76 -84 -6 -89 -6 -68 9
33 25 47 78 32 124 -16 51 -48 112 -58 112 -12 0 -66 -81 -79 -118 -9 -26 -8
-41 4 -72 9 -21 22 -41 30 -44 25 -10 15 -21 -28 -32 -24 -6 -50 -14 -60 -18
-14 -6 -16 -2 -12 31 5 39 -27 112 -53 120 -17 6 -53 -70 -53 -111 0 -25 7
-40 24 -54 l25 -19 -54 -56 c-35 -36 -67 -84 -93 -138 -115 -242 -106 -229
-222 -346 -60 -61 -110 -110 -110 -108 0 1 6 18 14 36 18 42 62 103 137 191
96 111 125 174 155 329 30 161 65 223 183 325 121 104 255 240 302 305 42 57
45 59 58 39 9 -13 24 -20 47 -20 42 0 49 12 21 38 -42 39 -66 32 -134 -38 -65
-66 -81 -73 -63 -26 5 15 15 70 21 121 10 86 6 153 -15 237 -1 7 -1 10 1 6 3
-5 19 -8 37 -8 49 0 78 37 84 105 l4 55 -43 -19 c-61 -27 -89 -54 -90 -88 -2
-55 -27 47 -28 114 -1 60 12 92 22 54 7 -28 53 -54 95 -53 32 0 152 44 152 56
0 9 -100 77 -128 87 -28 10 -51 4 -115 -29 -4 -2 -4 3 -1 12 3 9 3 16 0 16
-11 0 -44 -75 -51 -118 l-7 -43 -43 40 c-64 59 -114 81 -182 81 -32 0 -65 -5
-73 -10 -13 -8 -13 -10 -1 -10 12 0 12 -3 3 -12 -14 -14 -16 -68 -2 -68 13 0
50 37 50 49 0 5 -7 17 -16 25 -14 15 -12 16 18 16 53 0 107 -19 141 -50 18
-16 27 -30 20 -30 -6 0 -15 5 -18 10 -9 15 -92 12 -123 -4 -33 -17 -76 -63
-124 -131 -47 -67 -54 -80 -39 -71 8 6 10 1 6 -17 -5 -19 0 -29 21 -46 35 -27
44 -27 44 5 0 36 -17 64 -41 64 -17 0 -12 10 31 67 60 80 88 102 101 82 5 -8
9 -22 9 -32 0 -35 20 -57 50 -57 59 0 52 61 -11 89 -46 21 -35 31 32 31 74 0
131 -47 174 -144 25 -57 27 -82 3 -58 -14 14 -57 16 -76 4 -9 -6 -7 -13 10
-29 35 -31 46 -35 67 -23 28 14 34 -1 26 -61 l-7 -49 -30 25 c-43 36 -58 33
-58 -13 0 -45 28 -77 60 -69 24 6 24 -1 5 -72 -17 -65 -33 -86 -41 -54 -5 19
-73 63 -98 63 -9 0 2 -78 15 -102 5 -10 23 -21 40 -25 l31 -8 -21 -27 c-12
-15 -39 -40 -60 -57 l-38 -30 4 47 c4 41 1 52 -27 85 -17 20 -35 37 -40 37 -5
0 -17 -24 -26 -54 -22 -68 -8 -112 38 -124 l29 -7 -71 -63 c-66 -60 -132 -144
-157 -203 -6 -14 -16 -61 -23 -104 -7 -43 -15 -88 -19 -99 -8 -20 -8 -19 -21
4 -7 14 -32 46 -57 72 -40 44 -63 84 -63 111 0 6 9 1 20 -11 24 -26 59 -28
101 -6 31 15 49 48 75 133 l13 43 -47 -7 c-66 -10 -113 -31 -140 -63 -27 -33
-24 -19 21 81 31 68 40 79 51 52 6 -16 86 -22 86 -7 0 19 -50 54 -69 49 -18
-4 -19 -2 -10 15 25 47 91 106 194 174 61 39 124 87 142 105 70 74 93 190 54
267 l-19 38 33 0 c47 0 53 10 25 39 -27 28 -52 32 -70 10 -10 -12 -8 -28 10
-84 15 -47 20 -79 15 -101 l-7 -31 -16 33 c-17 33 -73 71 -126 84 l-29 7 6
-51 c3 -28 13 -64 21 -80 18 -35 65 -57 102 -48 28 8 28 4 -13 -50 -19 -25
-93 -84 -105 -84 -2 0 -3 23 -4 52 -1 50 -2 54 -59 105 -32 29 -62 53 -66 53
-8 0 -16 -28 -25 -96 -8 -63 12 -106 61 -131 l34 -18 -68 -51 -67 -50 14 60
c26 113 -1 274 -62 366 -22 33 -26 35 -70 32 -25 -2 -46 -7 -46 -12 0 -4 10
-22 23 -41 20 -29 29 -34 60 -32 36 2 37 1 53 -50 28 -91 30 -185 4 -269 -12
-40 -31 -94 -42 -119 l-19 -46 -29 28 c-40 40 -64 39 -56 -3 8 -39 23 -58 47
-58 24 0 25 2 -12 -83 -32 -73 -43 -162 -25 -199 7 -17 0 -18 -90 -18 -81 0
-105 4 -131 20 l-32 19 8 -22 c13 -38 67 -57 157 -57 45 0 95 -5 112 -11 l32
-11 -26 -27 c-14 -15 -39 -59 -55 -97 l-28 -69 26 32 c14 18 33 47 43 65 9 18
29 40 43 48 25 14 28 13 48 -7 21 -21 22 -25 10 -77 -12 -52 -31 -85 -31 -52
0 17 -46 56 -68 56 -11 0 -13 -7 -8 -32 8 -43 25 -60 53 -55 23 4 23 4 6 -23
-23 -36 -80 -98 -121 -132 -28 -23 -36 -26 -62 -17 -16 6 -40 21 -53 35 -24
24 -79 121 -91 160 -6 20 -4 21 37 17 59 -7 90 21 123 111 13 38 23 70 21 73
-2 2 -35 -3 -73 -11 -54 -11 -75 -21 -96 -45 -16 -17 -28 -39 -28 -48 0 -41
-21 10 -45 107 -32 132 -33 209 -3 261 46 82 126 85 193 6 l35 -42 -10 33
c-10 35 -26 61 -47 75 -23 14 -14 25 47 58 103 55 171 128 195 209 6 20 0 17
-33 -20 -40 -44 -41 -44 -42 -19 0 15 -12 62 -27 105 -17 50 -27 102 -27 141
-1 67 -14 70 -23 6 -3 -24 3 -68 15 -114 50 -180 31 -228 -121 -301 -42 -21
-79 -38 -82 -38 -2 0 15 33 39 73 74 126 101 210 111 347 7 106 20 167 51 250
36 96 44 104 44 44 0 -58 24 -90 59 -79 47 15 38 71 -19 112 l-38 29 34 47
c19 27 56 61 81 78 26 16 42 29 36 29 -6 0 -33 -15 -59 -32 -36 -24 -62 -55
-98 -113 l-48 -80 6 105 c3 58 8 119 11 135 5 27 4 27 -5 7 -10 -24 -19 -74
-46 -267 -9 -66 -19 -123 -23 -128 -4 -4 -24 26 -45 67 -46 88 -45 119 2 218
33 68 57 166 29 119 -13 -22 -14 -22 -19 -4 -3 11 -19 25 -37 31 -28 10 -31 9
-31 -9 0 -25 37 -62 56 -55 21 8 18 -3 -32 -108 -52 -110 -53 -110 -91 -6 -27
73 -35 137 -24 178 13 43 4 41 -16 -5z m-551 -1153 c46 -13 85 -58 134 -152
46 -87 117 -161 199 -205 41 -22 53 -33 38 -33 -28 0 -80 -60 -61 -71 20 -13
72 -11 90 4 9 6 18 23 20 37 3 25 4 25 45 -16 23 -22 45 -54 49 -70 4 -16 18
-52 30 -81 35 -75 74 -263 56 -263 -5 0 -17 10 -28 21 -10 12 -78 68 -151 125
-72 57 -150 125 -172 151 l-41 48 28 7 c35 10 52 34 52 72 0 51 -12 60 -46 34
-16 -12 -31 -23 -33 -24 -2 -2 -6 -17 -10 -35 l-6 -32 -59 72 c-87 106 -132
141 -269 210 -69 34 -133 71 -142 81 -17 19 -17 20 1 25 53 16 69 31 69 63 0
31 1 32 44 32 l44 0 -25 -20 c-24 -18 -55 -76 -47 -84 2 -2 25 -7 51 -11 44
-7 50 -5 78 23 40 40 41 79 3 88 -47 10 -49 12 -13 13 19 1 52 -4 72 -9z
m1308 -320 c0 -5 -2 -10 -4 -10 -3 0 -8 5 -11 10 -3 6 -1 10 4 10 6 0 11 -4
11 -10z m283 -27 c-7 -2 -19 -2 -25 0 -7 3 -2 5 12 5 14 0 19 -2 13 -5z m-333
-19 c0 -9 -5 -14 -12 -12 -18 6 -21 28 -4 28 9 0 16 -7 16 -16z m-23 -40 c-9
-9 -28 6 -21 18 4 6 10 6 17 -1 6 -6 8 -13 4 -17z m390 -20 c-9 -9 -28 6 -21
18 4 6 10 6 17 -1 6 -6 8 -13 4 -17z m-97 0 c0 -8 -5 -12 -10 -9 -6 4 -8 11
-5 16 9 14 15 11 15 -7z m-311 -26 c0 -28 -2 -30 -9 -13 -12 28 -12 45 0 45 6
0 10 -15 9 -32z m207 20 c4 -6 2 -14 -4 -16 -7 -2 -12 -20 -13 -40 l-1 -37 -9
30 c-14 48 6 97 27 63z m24 -23 c-10 -12 -10 -19 -2 -27 7 -7 12 -21 11 -32 0
-17 -3 -15 -11 8 -8 21 -13 25 -19 15 -7 -11 -9 -10 -9 3 0 9 5 20 10 23 6 3
10 16 10 28 0 16 3 18 12 9 8 -8 8 -15 -2 -27z m109 -7 c0 -31 -1 -31 -10 -10
-5 13 -7 28 -3 33 10 16 14 9 13 -23z m-355 -43 c4 -28 3 -33 -2 -15 -16 46
-23 86 -13 70 5 -8 12 -33 15 -55z m430 44 c-3 -5 -10 -7 -15 -3 -5 3 -7 10
-3 15 3 5 10 7 15 3 5 -3 7 -10 3 -15z m-334 1 c0 -5 -4 -10 -10 -10 -5 0 -10
5 -10 10 0 6 5 10 10 10 6 0 10 -4 10 -10z m205 -43 l-7 -52 49 -47 c26 -26
56 -54 67 -61 16 -12 10 -16 -62 -35 -44 -12 -82 -22 -84 -22 -3 0 -8 14 -12
31 -3 18 -13 33 -24 35 -9 3 -33 30 -52 60 -25 39 -41 54 -57 54 -42 0 -105
-88 -83 -115 6 -8 10 -22 7 -32 -4 -14 -5 -14 -6 4 0 12 -6 25 -12 28 -10 7
-8 -22 7 -92 2 -13 2 -23 0 -23 -2 0 -11 -3 -20 -6 -13 -5 -16 1 -16 25 0 17
-5 31 -10 31 -6 0 -8 -14 -5 -32 4 -24 2 -29 -5 -17 -11 18 -33 149 -26 156 2
3 8 -16 11 -41 4 -26 12 -49 18 -53 6 -4 8 4 3 21 -5 20 -1 38 14 63 11 19 18
43 16 52 -3 9 -1 32 3 51 l9 35 3 -35 c1 -19 2 -46 1 -60 -1 -22 1 -21 20 10
25 42 35 50 70 50 25 0 33 -7 86 -78 16 -21 20 -22 52 -11 45 15 44 14 26 41
-13 19 -14 31 -5 63 21 75 33 76 24 2z m-210 5 c0 -18 -20 -15 -23 4 -3 10 1
15 10 12 7 -3 13 -10 13 -16z m93 -11 c3 -8 -1 -12 -9 -9 -7 2 -15 10 -17 17
-3 8 1 12 9 9 7 -2 15 -10 17 -17z m-194 -46 c5 -29 4 -35 -3 -20 -8 16 -10
13 -11 -20 l-1 -40 -14 39 c-14 41 -12 61 7 50 7 -5 9 2 6 20 -3 15 -2 24 2
19 5 -4 11 -26 14 -48z m346 25 c0 -5 -7 -7 -15 -4 -8 4 -15 8 -15 10 0 2 7 4
15 4 8 0 15 -4 15 -10z m-200 -30 c0 -5 -4 -10 -10 -10 -5 0 -10 5 -10 10 0 6
5 10 10 10 6 0 10 -4 10 -10z m-30 -10 c0 -5 -2 -10 -4 -10 -3 0 -8 5 -11 10
-3 6 -1 10 4 10 6 0 11 -4 11 -10z m-156 -193 c6 -24 1 -27 -65 -52 -39 -15
-100 -47 -135 -70 -35 -24 -61 -38 -57 -32 4 7 56 76 115 155 60 79 112 151
116 160 4 10 10 -17 13 -60 4 -42 9 -88 13 -101z m126 138 c-8 -10 -8 -19 -1
-34 14 -26 14 -31 -4 -31 -9 0 -15 9 -15 24 0 13 -3 31 -6 40 -4 11 -1 16 10
16 9 0 16 6 17 13 0 9 2 9 6 -1 3 -7 0 -19 -7 -27z m50 31 c0 -2 -7 -6 -15
-10 -8 -3 -15 -1 -15 4 0 6 7 10 15 10 8 0 15 -2 15 -4z m30 -6 c0 -5 -2 -10
-4 -10 -3 0 -8 5 -11 10 -3 6 -1 10 4 10 6 0 11 -4 11 -10z m18 -60 c32 -37
44 -62 36 -69 -14 -13 -144 -21 -144 -9 0 6 15 29 33 51 17 23 30 48 29 56 -3
13 -1 13 15 0 10 -7 24 -21 31 -29z m-81 8 c-3 -8 -6 -5 -6 6 -1 11 2 17 5 13
3 -3 4 -12 1 -19z m-1017 -87 c8 -9 66 -58 127 -110 121 -101 156 -150 166
-239 l5 -43 -132 129 c-73 70 -162 150 -199 177 -57 43 -64 51 -47 57 24 9 27
50 5 68 -8 7 -15 17 -15 22 0 11 64 -33 90 -61z m1056 -168 c16 -26 16 -27 0
-14 -16 13 -17 12 -10 -15 17 -72 65 -114 113 -99 26 8 29 56 5 76 -13 11 -14
9 -9 -14 5 -20 3 -27 -8 -27 -41 0 -50 72 -9 78 12 2 22 11 22 20 1 14 3 14
12 -3 6 -11 20 -28 29 -39 39 -42 31 -116 -15 -137 -58 -27 -141 22 -186 111
-28 55 -26 78 8 83 15 2 28 5 28 6 1 0 10 -11 20 -26z m53 -2 c0 -10 -2 -11
-6 -3 -2 6 -11 12 -19 12 -8 0 -14 4 -14 9 0 5 9 7 20 4 11 -3 20 -13 19 -22z
m-139 9 c0 -5 -4 -10 -10 -10 -5 0 -10 5 -10 10 0 6 5 10 10 10 6 0 10 -4 10
-10z m235 -19 c-6 -5 -25 10 -25 20 0 5 6 4 14 -3 8 -7 12 -15 11 -17z m-265
9 c0 -5 -4 -10 -10 -10 -5 0 -10 5 -10 10 0 6 5 10 10 10 6 0 10 -4 10 -10z
m324 -81 c3 -24 3 -35 0 -24 -3 11 -12 27 -19 35 -7 8 -16 31 -20 50 l-7 35
20 -26 c12 -15 24 -46 26 -70z m-269 -9 c-3 -4 2 -10 10 -14 8 -3 15 -13 14
-23 0 -14 -2 -15 -6 -3 -3 8 -12 19 -19 23 -8 4 -14 15 -14 23 0 8 5 12 10 9
6 -4 8 -10 5 -15z m115 -10 c0 -5 -2 -10 -4 -10 -3 0 -8 5 -11 10 -3 6 -1 10
4 10 6 0 11 -4 11 -10z m140 -27 c0 -19 -3 -24 -10 -17 -6 6 -8 18 -4 27 9 24
14 21 14 -10z m-16 -38 c3 -8 1 -15 -4 -15 -6 0 -10 7 -10 15 0 8 2 15 4 15 2
0 6 -7 10 -15z m-164 -5 c0 -5 -4 -10 -9 -10 -6 0 -13 5 -16 10 -3 6 1 10 9
10 9 0 16 -4 16 -10z m121 -43 c-21 -21 -22 -21 -19 -2 2 11 10 23 18 26 25
11 25 0 1 -24z m-48 16 c-13 -2 -33 -2 -45 0 -13 2 -3 4 22 4 25 0 35 -2 23
-4z m97 -13 c0 -5 -2 -10 -4 -10 -3 0 -8 5 -11 10 -3 6 -1 10 4 10 6 0 11 -4
11 -10z m-430 -1720 c0 -5 -8 -10 -17 -10 -15 0 -16 2 -3 10 19 12 20 12 20 0z
m-268 -77 c5 -27 9 -54 10 -60 1 -10 4 -10 16 0 13 10 14 9 4 -10 -10 -18 -9
-28 7 -53 13 -22 21 -27 25 -18 3 7 3 2 0 -12 -7 -29 -43 -62 -62 -55 -7 3
-10 0 -7 -6 8 -13 -23 -49 -42 -49 -10 0 -12 7 -8 23 5 17 4 19 -4 7 -6 -8
-11 -22 -11 -31 0 -17 -60 -82 -68 -75 -2 3 7 36 21 75 14 38 23 72 19 75 -3
3 0 6 6 6 7 0 12 5 12 11 0 5 -4 7 -10 4 -5 -3 -10 -3 -11 2 0 4 -2 17 -4 29
-3 13 1 21 10 21 8 0 12 -4 9 -9 -3 -4 4 -8 15 -8 10 0 22 6 25 13 3 6 4 -1 1
-16 -4 -19 -2 -26 5 -22 5 3 10 1 10 -6 0 -7 2 -10 5 -7 3 2 -1 25 -8 49 -11
37 -11 55 1 112 8 37 17 65 20 62 3 -2 9 -26 14 -52z m-132 -148 c-7 -8 -18
-15 -24 -15 -6 0 -2 7 8 15 25 19 32 19 16 0z m220 -65 c0 -10 -9 -21 -20 -25
-41 -13 -56 24 -17 42 27 13 37 8 37 -17z m-1420 -260 c0 -9 -8 -24 -17 -33
-27 -24 -51 -77 -58 -127 -6 -51 -20 -78 -32 -66 -4 4 -10 43 -11 86 -4 79 10
131 54 198 l16 24 24 -33 c13 -18 24 -40 24 -49z m317 -36 c-29 -16 -57 -13
-57 6 0 5 19 10 43 10 l42 -1 -28 -15z"/>
<path d="M1220 4718 c-11 -12 -20 -34 -20 -50 0 -29 0 -29 63 -6 27 11 45 47
32 67 -11 18 -53 12 -75 -11z"/>
<path d="M1312 4567 c-34 -35 -40 -62 -19 -91 17 -23 52 -14 68 16 11 21 4
108 -10 108 -4 0 -21 -15 -39 -33z"/>
<path d="M1605 4314 c-48 -51 -58 -72 -51 -106 13 -64 58 -78 96 -30 18 22 21
35 16 70 -3 23 -12 55 -20 69 l-14 27 -27 -30z"/>
<path d="M2412 4166 c-8 -19 -8 -36 2 -68 l12 -43 0 67 c-1 38 -1 68 -2 68 0
0 -6 -11 -12 -24z"/>
<path d="M2175 5978 c-10 -39 -2 -63 20 -63 27 0 31 36 6 66 l-19 24 -7 -27z"/>
<path d="M2675 5958 c10 -33 25 -48 45 -48 45 0 23 49 -28 65 -22 6 -23 5 -17
-17z"/>
<path d="M2077 5963 c-13 -24 -16 -65 -5 -88 9 -20 18 -25 37 -23 45 5 39 83
-9 108 -10 5 -21 7 -23 3z"/>
<path d="M2352 5948 c-20 -20 -13 -47 16 -62 25 -13 32 -13 70 4 23 11 42 22
42 25 0 3 -15 14 -32 25 -37 22 -78 26 -96 8z"/>
<path d="M2536 5932 c-10 -19 -11 -33 -5 -45 23 -41 56 -4 43 47 -8 34 -20 33
-38 -2z"/>
<path d="M1430 5925 c-10 -12 -9 -20 4 -40 22 -33 36 -32 36 4 0 37 -22 57
-40 36z"/>
<path d="M955 5891 c-20 -46 -15 -81 17 -111 44 -40 78 -16 78 55 0 27 -8 44
-29 66 -16 16 -34 29 -39 29 -5 0 -17 -18 -27 -39z"/>
<path d="M1516 5903 c-8 -29 14 -60 33 -49 15 9 14 49 -1 64 -18 18 -25 15
-32 -15z"/>
<path d="M1285 5829 c-40 -36 -46 -72 -14 -89 43 -23 84 31 71 95 -6 32 -14
32 -57 -6z"/>
<path d="M1686 5829 c-30 -26 -36 -38 -34 -63 2 -25 8 -32 30 -34 32 -4 58 29
58 73 0 55 -13 60 -54 24z"/>
<path d="M1840 5847 c-32 -16 -35 -61 -4 -65 24 -3 40 12 49 51 8 31 -4 35
-45 14z"/>
<path d="M1503 5817 c-35 -16 -42 -57 -9 -57 20 0 38 26 34 48 -2 16 -7 18
-25 9z"/>
<path d="M1101 5798 c-32 -20 -32 -22 -15 -35 44 -32 108 -28 119 8 16 48 -45
64 -104 27z"/>
<path d="M2294 5798 c-5 -16 0 -27 20 -45 40 -34 57 -30 50 10 -10 53 -56 77
-70 35z"/>
<path d="M2213 5802 c-18 -11 -44 -80 -34 -86 10 -7 70 12 89 27 7 6 12 22 10
36 -2 19 -9 27 -28 29 -14 1 -30 -1 -37 -6z"/>
<path d="M1372 5724 c-26 -18 -29 -42 -6 -51 19 -7 44 21 44 49 0 22 -9 23
-38 2z"/>
<path d="M1932 5717 c-25 -26 -28 -50 -9 -65 23 -19 57 13 57 54 0 40 -17 44
-48 11z"/>
<path d="M1122 5694 c-28 -20 -30 -54 -2 -54 13 0 24 10 30 26 18 47 11 55
-28 28z"/>
<path d="M2953 5658 c7 -72 24 -104 64 -123 41 -20 71 -12 84 22 18 49 -9 91
-83 129 -68 34 -72 33 -65 -28z"/>
<path d="M923 5678 c-31 -15 -29 -30 11 -72 38 -41 80 -47 116 -18 19 15 21
22 11 39 -28 54 -88 75 -138 51z"/>
<path d="M2206 5624 c-9 -8 -16 -24 -16 -34 0 -44 63 -22 72 25 4 21 1 25 -18
25 -12 0 -30 -7 -38 -16z"/>
<path d="M1334 5608 c-35 -17 -60 -88 -30 -88 7 0 27 5 45 11 35 12 51 50 31
74 -14 17 -17 17 -46 3z"/>
<path d="M3361 5548 c-25 -71 -4 -124 55 -142 17 -5 24 -1 34 24 23 55 1 109
-57 139 -19 10 -22 7 -32 -21z"/>
<path d="M941 5501 c-25 -59 -26 -91 -6 -131 19 -37 57 -48 90 -26 36 24 35
84 -4 140 -50 72 -55 73 -80 17z"/>
<path d="M2931 5515 c-31 -36 -38 -68 -22 -94 12 -19 57 -6 71 20 12 21 5 95
-10 104 -4 3 -22 -11 -39 -30z"/>
<path d="M826 5508 c-21 -49 -20 -71 2 -91 24 -22 41 -21 58 1 21 27 16 55
-15 92 l-29 35 -16 -37z"/>
<path d="M1170 5478 c0 -59 5 -70 36 -86 29 -15 57 6 57 42 0 30 -18 53 -62
79 l-31 18 0 -53z"/>
<path d="M1304 5475 c-7 -19 -14 -42 -14 -50 0 -58 59 -76 80 -25 11 27 10 34
-14 70 -14 22 -29 40 -32 40 -3 0 -12 -16 -20 -35z"/>
<path d="M685 5457 c-16 -7 -41 -18 -54 -25 l-23 -14 48 -34 c33 -24 58 -34
83 -34 42 0 54 7 70 38 11 20 8 26 -18 52 -31 32 -57 36 -106 17z"/>
<path d="M1448 5435 c-50 -27 -68 -49 -68 -87 0 -31 18 -48 50 -48 42 0 70 39
77 104 3 31 2 56 -3 56 -5 -1 -30 -12 -56 -25z"/>
<path d="M1670 5429 c-55 -22 -76 -63 -45 -89 25 -21 65 -3 81 35 26 62 17 75
-36 54z"/>
<path d="M2135 5387 c-16 -43 -16 -48 -1 -72 20 -30 51 -33 66 -6 17 32 12 59
-19 93 l-28 31 -18 -46z"/>
<path d="M2826 5408 c10 -35 24 -48 49 -46 42 4 6 68 -38 68 -14 0 -17 -5 -11
-22z"/>
<path d="M1076 5377 c-39 -51 -31 -107 16 -107 30 0 48 40 38 84 -13 58 -24
63 -54 23z"/>
<path d="M2983 5402 c-9 -6 0 -22 30 -56 33 -37 49 -48 74 -48 61 -2 80 38 42
86 -18 23 -28 26 -77 26 -31 0 -63 -4 -69 -8z"/>
<path d="M563 5340 c-40 -24 -41 -33 -8 -48 38 -17 80 -15 98 6 15 16 15 20 1
40 -19 27 -49 28 -91 2z"/>
<path d="M806 5339 c-23 -18 -26 -27 -26 -85 0 -39 4 -64 11 -64 6 0 26 12 45
26 l34 26 0 -45 c0 -98 34 -157 91 -157 39 0 59 24 59 71 0 47 -24 75 -91 109
-24 13 -45 23 -46 24 -2 1 3 16 9 33 10 26 9 35 -5 57 -21 31 -45 33 -81 5z"/>
<path d="M460 5304 c-15 -49 -10 -84 13 -98 25 -16 51 4 55 42 2 22 -5 39 -26
63 l-30 33 -12 -40z"/>
<path d="M1263 5294 c-21 -56 -22 -64 -11 -89 7 -15 20 -25 33 -25 51 0 61 62
17 111 l-28 32 -11 -29z"/>
<path d="M246 5250 c-27 -11 -54 -24 -59 -29 -12 -12 90 -89 129 -97 39 -8
100 18 109 46 4 12 2 34 -5 49 -21 53 -88 64 -174 31z"/>
<path d="M2962 5252 c-25 -4 -57 -45 -47 -62 11 -18 54 -11 65 11 17 31 9 55
-18 51z"/>
<path d="M3020 5223 c0 -38 22 -93 43 -108 12 -8 36 -15 54 -15 30 0 33 3 33
30 0 17 -7 44 -15 59 -22 44 -115 70 -115 34z"/>
<path d="M572 5173 c19 -46 40 -64 67 -61 20 2 27 10 29 30 4 33 -29 58 -75
58 -32 0 -32 -1 -21 -27z"/>
<path d="M1946 5149 c-8 -40 9 -71 37 -67 31 4 34 44 6 74 -29 31 -35 30 -43
-7z"/>
<path d="M3468 5135 c-26 -53 -19 -86 25 -119 l29 -21 19 24 c20 25 25 81 9
110 -5 10 -21 26 -35 35 -25 16 -25 16 -47 -29z"/>
<path d="M417 5129 c-10 -6 -23 -23 -28 -37 -11 -28 -3 -122 11 -122 4 0 28
18 54 41 37 33 46 47 46 73 0 51 -37 71 -83 45z"/>
<path d="M1077 5112 c-32 -34 -35 -87 -5 -106 42 -26 79 71 45 118 -11 16 -15
15 -40 -12z"/>
<path d="M1672 5115 c-28 -36 -28 -51 3 -71 18 -12 31 -14 52 -7 28 10 91 78
81 89 -3 3 -30 8 -60 11 -51 5 -56 4 -76 -22z"/>
<path d="M2347 5065 c-26 -54 -22 -99 9 -124 15 -12 33 -21 40 -21 20 0 35 35
36 81 0 31 -6 47 -28 70 -15 16 -31 29 -34 29 -3 0 -14 -16 -23 -35z"/>
<path d="M2877 5043 c-43 -42 -46 -58 -14 -67 78 -21 147 6 147 57 0 33 -18
47 -60 47 -29 0 -45 -8 -73 -37z"/>
<path d="M1170 5046 c-22 -58 -23 -77 -5 -96 26 -28 54 -25 66 7 11 31 -1 71
-32 99 -18 16 -19 15 -29 -10z"/>
<path d="M3623 5058 c-48 -23 -36 -67 27 -92 39 -15 43 -15 82 5 l40 21 -38
39 c-40 41 -68 48 -111 27z"/>
<path d="M881 5037 c-23 -59 -24 -77 -6 -97 23 -25 51 -25 65 -1 16 32 12 55
-19 91 l-29 35 -11 -28z"/>
<path d="M1321 5034 c-11 -15 -21 -37 -21 -49 0 -21 3 -22 35 -15 48 11 67 28
63 59 -4 38 -49 41 -77 5z"/>
<path d="M3342 5000 c5 -71 26 -100 73 -100 35 0 45 13 45 59 0 28 -34 68 -77
90 -41 21 -46 15 -41 -49z"/>
<path d="M2003 4978 c-24 -12 -38 -41 -28 -58 18 -30 75 10 75 52 0 20 -14 22
-47 6z"/>
<path d="M409 4922 c-14 -47 -9 -82 14 -96 47 -30 75 50 36 104 -13 16 -26 30
-30 30 -5 0 -13 -17 -20 -38z"/>
<path d="M3247 4897 c-15 -29 -27 -57 -27 -63 0 -24 42 -64 66 -64 34 0 57 53
44 100 -11 37 -37 80 -49 80 -4 0 -20 -24 -34 -53z"/>
<path d="M967 4923 c-13 -12 -7 -43 8 -43 9 0 15 9 15 25 0 24 -10 32 -23 18z"/>
<path d="M2830 4904 c0 -14 7 -41 16 -60 14 -29 22 -34 49 -34 24 0 35 5 37
18 8 33 -12 68 -48 85 -47 23 -54 21 -54 -9z"/>
<path d="M1470 4858 c-16 -36 -17 -44 -5 -46 31 -7 85 19 91 43 8 33 -2 45
-37 45 -26 0 -33 -6 -49 -42z"/>
<path d="M3113 4893 c-39 -15 14 -65 60 -56 33 7 34 13 4 41 -23 22 -39 25
-64 15z"/>
<path d="M1796 4845 c-9 -21 -16 -44 -16 -52 0 -52 61 -74 82 -28 13 28 -2 72
-32 100 -18 16 -20 15 -34 -20z"/>
<path d="M260 4863 c0 -6 10 -25 23 -44 17 -26 30 -34 52 -34 34 0 45 28 23
58 -15 20 -98 37 -98 20z"/>
<path d="M164 4793 c-38 -21 -84 -58 -84 -67 0 -11 112 -56 141 -56 73 0 110
93 49 125 -38 20 -68 19 -106 -2z"/>
<path d="M541 4749 c-16 -46 -14 -74 9 -94 24 -22 47 -14 60 20 10 27 2 53
-28 88 -21 24 -28 22 -41 -14z"/>
<path d="M1525 4763 c-64 -21 -95 -52 -102 -99 -10 -73 53 -100 107 -46 28 29
46 94 38 139 -3 19 -5 19 -43 6z"/>
<path d="M670 4745 c-14 -38 -5 -75 19 -75 34 0 40 42 11 80 l-19 25 -11 -30z"/>
<path d="M1890 4750 c-24 -24 -25 -34 -6 -49 26 -22 66 12 66 55 0 21 -37 17
-60 -6z"/>
<path d="M360 4669 l-34 -21 37 -34 c27 -25 46 -34 73 -34 37 0 37 -2 17 -56
-3 -8 15 -15 47 -19 62 -8 95 9 108 58 12 43 -8 61 -60 53 -33 -5 -38 -4 -38
13 0 23 -57 61 -91 61 -13 0 -40 -10 -59 -21z"/>
<path d="M124 4632 c-12 -9 -36 -37 -53 -61 -38 -53 -31 -61 50 -61 42 0 63 5
83 21 63 50 50 119 -22 119 -20 0 -47 -8 -58 -18z"/>
<path d="M318 4607 c11 -13 10 -15 -7 -10 -14 3 -30 -4 -51 -25 -31 -31 -39
-74 -24 -130 6 -22 7 -22 33 -6 14 9 39 28 54 43 24 22 27 32 25 74 -2 37 -8
52 -23 60 -18 9 -18 8 -7 -6z"/>
<path d="M2842 4508 c-7 -7 -12 -21 -11 -32 1 -18 2 -17 8 4 8 29 43 38 69 18
15 -12 16 -11 3 5 -16 20 -51 23 -69 5z"/>
<path d="M2546 4488 c-3 -7 -7 -26 -11 -43 -6 -29 -6 -29 9 -10 8 11 16 25 16
31 0 7 27 9 81 6 66 -4 81 -2 77 9 -6 19 -167 26 -172 7z"/>
<path d="M2868 4493 c7 -3 16 -2 19 1 4 3 -2 6 -13 5 -11 0 -14 -3 -6 -6z"/>
<path d="M2855 4461 c5 -18 4 -22 -6 -16 -8 5 -5 -2 5 -14 13 -14 29 -21 45
-19 21 2 27 9 29 36 4 37 -17 41 -31 7 -8 -19 -9 -19 -29 5 l-21 25 8 -24z"/>
<path d="M2950 4443 c-1 -7 -3 -18 -4 -23 0 -6 -8 -15 -16 -20 -11 -7 -1 -10
33 -10 l48 0 -17 32 c-15 30 -18 31 -24 13 -7 -20 -7 -20 -12 0 -3 11 -7 14
-8 8z"/>
<path d="M2486 4403 c-6 -14 -5 -15 5 -6 7 7 10 15 7 18 -3 3 -9 -2 -12 -12z"/>
<path d="M1865 4399 c-10 -16 25 -49 52 -49 25 0 32 27 11 48 -15 15 -55 16
-63 1z"/>
<path d="M3520 4390 c-11 -11 -20 -25 -20 -31 0 -21 21 -49 49 -63 24 -13 35
-13 79 -2 75 20 78 24 45 58 -56 59 -117 74 -153 38z"/>
<path d="M697 4383 c-4 -3 -7 -15 -7 -25 0 -16 3 -17 20 -8 22 12 27 40 7 40
-8 0 -17 -3 -20 -7z"/>
<path d="M1972 4348 c-16 -16 -16 -68 1 -68 21 0 49 36 45 57 -4 22 -29 28
-46 11z"/>
<path d="M694 4205 c-11 -27 1 -39 19 -21 17 17 15 36 -4 36 -5 0 -12 -7 -15
-15z"/>
<path d="M3680 4197 c-32 -16 -35 -61 -4 -65 24 -3 39 12 48 51 7 31 -4 34
-44 14z"/>
<path d="M183 4110 c-22 -10 -43 -22 -47 -28 -3 -6 15 -20 40 -32 37 -19 50
-21 70 -11 29 13 41 38 28 59 -18 27 -49 31 -91 12z"/>
<path d="M3710 4112 c-18 -14 -21 -25 -16 -45 12 -49 43 -67 113 -67 35 0 63
4 63 8 0 4 -13 29 -29 54 -44 69 -87 86 -131 50z"/>
<path d="M445 4089 c-19 -17 -35 -35 -35 -40 0 -14 67 -22 88 -10 30 16 39 51
16 68 -25 18 -29 17 -69 -18z"/>
<path d="M562 4098 c-13 -13 -17 -68 -4 -68 21 0 53 34 50 53 -3 25 -28 33
-46 15z"/>
<path d="M3323 4020 c-25 -10 -63 -65 -63 -91 0 -24 43 -59 74 -59 45 0 82 27
120 87 20 32 36 61 36 65 0 11 -140 9 -167 -2z"/>
<path d="M214 4010 c-35 -14 -54 -50 -54 -104 0 -54 18 -126 32 -126 5 0 33
22 61 49 49 47 52 52 52 101 0 42 -4 55 -24 71 -25 21 -35 22 -67 9z"/>
<path d="M932 4000 c-46 -43 -20 -90 50 -90 32 0 108 49 108 70 0 10 -86 40
-115 40 -12 0 -31 -9 -43 -20z"/>
<path d="M630 3981 c-21 -40 -12 -80 29 -123 37 -41 39 -41 50 -20 21 40 25
109 7 137 -21 31 -70 35 -86 6z"/>
<path d="M365 3907 l-30 -13 42 -28 c45 -30 70 -31 87 -3 27 42 -37 70 -99 44z"/>
<path d="M1230 3907 c-19 -9 -26 -22 -28 -51 -4 -44 16 -71 65 -92 36 -16 143
-19 143 -5 0 13 -33 82 -54 113 -10 16 -34 32 -55 38 -44 12 -41 12 -71 -3z"/>
<path d="M3469 3841 c-16 -16 -29 -36 -29 -45 0 -21 32 -36 77 -36 40 0 54 8
87 47 l19 23 -44 20 c-59 26 -75 25 -110 -9z"/>
<path d="M3248 3810 c-39 -30 -52 -71 -38 -114 16 -49 25 -52 65 -22 41 32 52
73 31 115 -22 41 -30 44 -58 21z"/>
<path d="M836 3798 c-8 -13 -18 -36 -22 -52 -6 -25 -5 -28 10 -23 10 4 24 7
32 7 8 0 26 11 40 25 20 20 23 28 14 45 -15 27 -56 26 -74 -2z"/>
<path d="M975 3790 c-8 -13 20 -24 41 -16 20 8 9 26 -16 26 -10 0 -22 -5 -25
-10z"/>
<path d="M682 3763 c-11 -4 -52 -73 -52 -88 0 -15 80 -3 104 16 53 42 13 98
-52 72z"/>
<path d="M3356 3717 c-30 -40 -33 -81 -8 -119 l18 -28 37 36 c41 40 49 83 21
122 -21 31 -39 28 -68 -11z"/>
<path d="M884 3700 c-21 -8 -52 -75 -41 -87 3 -3 22 0 41 7 45 15 69 46 55 72
-11 20 -22 21 -55 8z"/>
<path d="M3588 3699 c-39 -22 1 -71 40 -50 25 13 45 38 35 44 -21 12 -60 15
-75 6z"/>
<path d="M1066 3678 c-9 -12 -16 -35 -16 -51 0 -30 35 -107 49 -107 14 0 61
86 61 112 0 34 -27 68 -55 68 -13 0 -31 -10 -39 -22z"/>
<path d="M530 3639 c-9 -17 -8 -25 7 -41 21 -23 76 -21 113 5 21 15 21 15 -13
36 -45 28 -93 28 -107 0z"/>
<path d="M732 3638 c-5 -7 -13 -23 -16 -35 -6 -19 -4 -22 11 -16 29 10 43 24
43 44 0 22 -23 25 -38 7z"/>
<path d="M1385 3586 c-26 -40 10 -86 66 -86 25 0 109 38 109 48 0 4 -20 19
-44 35 -56 35 -109 37 -131 3z"/>
<path d="M3435 3592 c-11 -9 -31 -30 -43 -47 -22 -27 -22 -30 -5 -36 10 -4 42
-8 71 -8 59 -1 92 22 92 64 0 44 -75 61 -115 27z"/>
<path d="M557 3523 c-14 -13 -7 -60 11 -76 10 -9 33 -20 52 -23 l33 -7 -6 38
c-3 20 -14 46 -23 56 -17 19 -54 25 -67 12z"/>
<path d="M370 3496 c0 -19 45 -99 63 -111 28 -19 62 -19 81 1 22 22 20 48 -7
80 -19 22 -34 28 -80 32 -31 2 -57 2 -57 -2z"/>
<path d="M925 3461 c-8 -51 15 -97 58 -114 l32 -14 12 41 c7 23 13 47 13 54 0
23 -57 72 -83 72 -22 0 -26 -6 -32 -39z"/>
<path d="M3567 3483 c-4 -3 -7 -17 -7 -31 0 -27 25 -51 51 -52 14 0 16 6 9 36
-10 43 -35 65 -53 47z"/>
<path d="M1222 3457 l-22 -13 36 -42 c39 -47 80 -55 122 -26 29 20 28 27 -9
63 -34 34 -85 41 -127 18z"/>
<path d="M3343 3424 c-24 -26 -43 -50 -43 -54 0 -12 40 -20 97 -20 60 0 93 25
93 72 0 32 -24 48 -71 48 -26 0 -42 -10 -76 -46z"/>
<path d="M820 3375 c-8 -9 -14 -33 -14 -52 0 -29 8 -43 43 -75 50 -47 60 -43
68 33 4 44 2 58 -13 76 -26 30 -67 39 -84 18z"/>
<path d="M467 3338 c-8 -13 -18 -34 -22 -47 -7 -23 -6 -24 30 -18 74 12 104
79 38 85 -24 2 -35 -2 -46 -20z"/>
<path d="M690 3332 c-26 -8 -40 -34 -40 -74 0 -21 3 -38 6 -38 15 0 73 42 78
57 14 34 -11 66 -44 55z"/>
<path d="M1240 3300 c-15 -17 -33 -44 -39 -60 l-10 -30 44 0 c76 0 124 29 125
76 1 53 -75 62 -120 14z"/>
<path d="M2385 2013 c11 -3 25 -9 32 -15 7 -6 18 -6 30 0 10 5 34 8 53 6 30
-3 32 -2 10 5 -14 5 -52 9 -85 9 -33 0 -51 -3 -40 -5z"/>
<path d="M2465 1970 c19 -8 73 -14 64 -6 -2 2 -22 6 -44 9 -28 5 -34 4 -20 -3z"/>
<path d="M2763 1973 c15 -2 37 -2 50 0 12 2 0 4 -28 4 -27 0 -38 -2 -22 -4z"/>
<path d="M2540 1958 c0 -4 14 -8 30 -8 17 0 30 2 30 4 0 2 -13 6 -30 8 -16 3
-30 1 -30 -4z"/>
<path d="M1158 1953 c7 -3 16 -2 19 1 4 3 -2 6 -13 5 -11 0 -14 -3 -6 -6z"/>
<path d="M1240 1920 c14 -12 37 -20 59 -19 35 0 35 1 -19 19 -69 24 -68 24
-40 0z"/>
<path d="M1080 1909 c-22 -6 -21 -7 11 -8 19 -1 40 -6 46 -12 6 -6 13 -7 16
-2 9 14 -45 30 -73 22z"/>
<path d="M1188 1903 c6 -2 18 -2 25 0 6 3 1 5 -13 5 -14 0 -19 -2 -12 -5z"/>
<path d="M3020 1829 c-19 -10 -29 -18 -22 -19 7 0 22 4 32 10 10 5 43 14 72
19 l53 9 -50 0 c-29 0 -64 -8 -85 -19z"/>
<path d="M1727 1763 c-4 -3 -7 -11 -7 -17 0 -6 5 -5 12 2 6 6 9 14 7 17 -3 3
-9 2 -12 -2z"/>
<path d="M933 1743 c15 -2 37 -2 50 0 12 2 0 4 -28 4 -27 0 -38 -2 -22 -4z"/>
<path d="M1018 1743 c7 -3 16 -2 19 1 4 3 -2 6 -13 5 -11 0 -14 -3 -6 -6z"/>
<path d="M1078 1743 c7 -3 16 -2 19 1 4 3 -2 6 -13 5 -11 0 -14 -3 -6 -6z"/>
<path d="M2664 1708 c4 -18 11 -57 16 -86 5 -28 16 -62 24 -74 19 -27 19 -26
2 39 -8 29 -11 55 -8 57 4 2 27 3 52 1 25 -1 38 0 30 3 -8 2 -27 13 -41 23
-14 10 -30 15 -34 11 -5 -4 -5 -2 -1 5 3 6 -3 18 -14 26 -11 7 -17 17 -13 20
3 4 1 7 -7 7 -9 0 -11 -9 -6 -32z"/>
<path d="M2423 1723 c9 -2 23 -2 30 0 6 3 -1 5 -18 5 -16 0 -22 -2 -12 -5z"/>
<path d="M2491 1690 c21 -27 129 -98 129 -85 0 3 -24 19 -54 35 -47 27 -74 55
-63 66 2 2 24 -7 50 -19 25 -13 44 -20 41 -15 -9 14 -82 48 -105 48 l-22 0 24
-30z"/>
<path d="M671 1698 c-19 -5 -44 -16 -55 -24 -35 -24 -116 -106 -116 -117 0 -5
9 2 20 16 12 15 35 36 51 48 26 18 33 19 40 8 7 -11 9 -8 9 8 0 33 41 55 105
57 30 0 55 4 55 9 0 10 -68 7 -109 -5z"/>
<path d="M1815 1699 c-15 -6 -13 -7 13 -5 17 2 34 5 37 7 8 8 -29 7 -50 -2z"/>
<path d="M2916 1685 c15 -13 30 -23 32 -21 7 7 -33 46 -47 46 -8 0 -3 -10 15
-25z"/>
<path d="M800 1694 c8 -4 26 -11 40 -16 20 -7 22 -11 10 -18 -22 -14 8 -13 49
1 44 16 28 27 -49 33 -36 3 -58 3 -50 0z"/>
<path d="M2990 1680 c8 -5 20 -10 25 -10 6 0 3 5 -5 10 -8 5 -19 10 -25 10 -5
0 -3 -5 5 -10z"/>
<path d="M1720 1665 c-17 -10 -20 -14 -9 -15 9 0 22 7 29 15 15 18 12 18 -20
0z"/>
<path d="M1068 1663 c30 -4 32 -6 20 -21 -12 -15 -11 -16 5 -3 27 21 20 31
-20 29 l-38 -1 33 -4z"/>
<path d="M3062 1650 c20 -11 44 -30 53 -42 15 -21 16 -21 13 -3 -3 18 -71 65
-93 64 -5 0 7 -9 27 -19z"/>
<path d="M2960 1656 c0 -2 7 -7 16 -10 8 -3 12 -2 9 4 -6 10 -25 14 -25 6z"/>
<path d="M2840 1624 c0 -9 59 -32 100 -38 24 -4 67 -21 94 -38 28 -17 44 -23
37 -14 -8 10 -31 26 -50 36 -36 18 -181 62 -181 54z"/>
<path d="M724 1605 c-18 -13 -18 -14 4 -8 12 3 25 9 28 14 8 14 -10 11 -32 -6z"/>
<path d="M1045 1611 c-3 -5 -1 -12 4 -15 5 -3 11 1 15 9 6 16 -9 21 -19 6z"/>
<path d="M1600 1590 c-25 -16 -40 -30 -35 -30 11 0 85 48 85 55 0 7 0 7 -50
-25z"/>
<path d="M1699 1608 c-1 -7 -1 -19 0 -27 2 -7 -2 -10 -7 -7 -11 6 -26 -23 -17
-32 3 -3 5 0 5 8 0 9 3 10 13 1 11 -9 14 -3 14 29 0 37 -6 56 -8 28z"/>
<path d="M605 1588 c3 -14 7 -33 11 -41 5 -14 -41 -67 -58 -67 -5 0 -8 -5 -8
-10 0 -11 58 32 117 88 31 28 32 31 9 21 -14 -7 -26 -16 -26 -21 0 -20 -21 -5
-35 25 -13 28 -15 29 -10 5z"/>
<path d="M2741 1595 c13 -23 49 -67 49 -59 0 5 -13 23 -28 39 -15 17 -24 26
-21 20z"/>
<path d="M3232 1582 c-18 -18 -38 -109 -27 -120 3 -3 5 4 5 15 0 11 7 26 15
33 13 11 13 15 3 21 -20 13 3 42 43 56 33 11 33 12 7 12 -16 1 -36 -7 -46 -17z"/>
<path d="M1740 1559 c45 -19 54 -25 57 -36 3 -7 -8 -14 -24 -16 -18 -3 -15 -4
11 -3 22 0 41 6 43 13 5 13 -37 37 -82 46 -29 6 -29 6 -5 -4z"/>
<path d="M1990 1563 c0 -13 29 -38 35 -31 3 3 -4 13 -15 23 -11 10 -20 13 -20
8z"/>
<path d="M2900 1557 c0 -8 7 -17 15 -21 8 -3 15 -2 15 3 0 5 -7 14 -15 21 -12
10 -15 10 -15 -3z"/>
<path d="M1651 1544 c0 -11 3 -14 6 -6 3 7 2 16 -1 19 -3 4 -6 -2 -5 -13z"/>
<path d="M923 1533 c0 -9 4 -10 14 -2 7 6 13 12 13 14 0 1 -6 2 -13 2 -8 0
-14 -6 -14 -14z"/>
<path d="M1623 1543 c-7 -3 -13 -12 -13 -21 0 -13 -2 -14 -8 -4 -14 21 -94
-41 -157 -123 -39 -51 -64 -75 -79 -76 -20 0 -20 -1 -1 -8 18 -8 16 -11 -19
-32 -22 -13 -34 -25 -26 -27 7 -3 16 2 21 9 5 8 9 10 9 5 0 -9 67 39 88 64 11
13 13 8 8 -30 -4 -43 -4 -43 6 -12 6 17 14 32 17 32 12 0 54 -94 61 -137 6
-37 4 -42 -13 -45 -11 -2 -22 -8 -24 -14 -2 -7 6 -10 23 -6 15 3 29 0 34 -8 4
-6 8 11 8 39 1 34 -8 75 -28 128 -40 104 -39 134 6 181 20 21 38 32 40 26 3
-7 17 1 35 18 30 30 35 49 12 41z"/>
<path d="M3518 1533 c6 -2 18 -2 25 0 6 3 1 5 -13 5 -14 0 -19 -2 -12 -5z"/>
<path d="M1430 1498 c-12 -22 -12 -22 6 -6 10 10 15 20 12 24 -4 3 -12 -5 -18
-18z"/>
<path d="M2050 1500 c13 -24 17 -25 17 -5 0 8 -6 16 -14 19 -11 4 -11 1 -3
-14z"/>
<path d="M2835 1480 c21 -22 41 -40 44 -40 3 0 -13 18 -34 40 -21 22 -41 40
-44 40 -3 0 13 -18 34 -40z"/>
<path d="M1098 1493 c7 -3 16 -2 19 1 4 3 -2 6 -13 5 -11 0 -14 -3 -6 -6z"/>
<path d="M2193 1466 c23 -18 10 -23 -78 -32 -61 -6 -65 -6 -59 12 7 18 6 18
-13 -1 -19 -19 -11 -41 9 -29 17 11 47 -7 41 -24 -5 -12 0 -10 17 6 13 12 27
22 30 22 15 0 18 -13 8 -29 -18 -29 -1 -84 47 -152 25 -35 45 -69 45 -75 0
-17 24 -24 41 -12 11 8 10 9 -5 4 -13 -5 -17 -2 -13 8 3 8 -2 25 -12 38 -31
40 -71 122 -71 146 0 26 29 82 43 82 4 0 5 5 2 10 -3 6 2 10 11 10 26 0 5 16
-31 24 -27 6 -28 5 -12 -8z"/>
<path d="M3410 1470 c0 -4 12 -11 28 -15 15 -3 49 -18 76 -31 32 -16 45 -19
36 -9 -22 27 -140 74 -140 55z"/>
<path d="M1285 1411 c-27 -31 -41 -49 -31 -41 16 12 20 13 24 2 2 -8 17 9 34
38 16 29 28 53 26 54 -2 1 -25 -23 -53 -53z"/>
<path d="M1722 1438 c-46 -89 -71 -240 -51 -308 7 -25 12 -52 11 -60 -2 -11 0
-10 8 3 6 9 16 15 21 11 5 -3 18 0 27 7 14 11 15 11 5 -1 -15 -16 -17 -30 -4
-30 15 0 21 31 10 52 -14 26 -4 35 18 17 10 -8 5 1 -10 19 -29 36 -36 82 -13
101 10 9 24 3 60 -26 25 -21 46 -44 46 -50 0 -7 4 -13 9 -13 5 0 7 -10 4 -21
-5 -19 -3 -21 27 -14 21 5 30 4 26 -3 -3 -5 2 -16 11 -23 15 -12 16 -12 10 5
-6 16 -5 17 7 7 8 -7 17 -22 19 -34 4 -19 4 -19 6 4 0 14 -5 31 -11 39 -11 12
-10 12 4 1 9 -7 19 -29 21 -49 l4 -37 1 38 c1 25 -4 43 -18 57 -11 11 -17 20
-12 20 4 0 3 4 -3 8 -5 4 -16 15 -24 25 -14 18 -13 18 25 12 50 -9 115 -45
107 -59 -4 -6 0 -5 9 2 13 11 17 9 22 -14 6 -22 9 -24 22 -13 13 11 18 11 28
-2 6 -9 22 -19 36 -22 14 -4 19 -4 12 -1 -6 3 -10 10 -6 15 3 5 2 9 -3 8 -20
-3 -34 2 -28 11 3 6 0 10 -7 10 -26 1 -75 56 -87 98 -7 23 -9 47 -6 52 3 6 3
16 -1 22 -6 9 -10 5 -14 -11 -3 -13 -18 -33 -32 -44 -25 -18 -30 -19 -55 -7
-15 8 -32 16 -36 18 -5 3 -4 -5 2 -16 10 -19 9 -20 -16 -13 -35 9 -62 48 -65
91 -1 19 -8 43 -16 52 -8 9 -11 21 -8 26 9 15 -4 42 -21 42 -13 0 -13 -3 -3
-15 7 -9 10 -18 6 -22 -3 -3 -6 0 -6 8 0 11 -2 11 -10 -1 -7 -11 -10 -11 -10
-2 0 7 -4 11 -9 8 -11 -7 -9 13 2 32 6 8 2 12 -11 12 -10 0 -24 -10 -30 -22z
m332 -224 c4 -15 6 -27 4 -29 -2 -1 -18 4 -37 12 -32 13 -32 15 -15 28 28 21
41 18 48 -11z"/>
<path d="M833 1428 c-6 -8 -7 -21 -2 -33 6 -16 8 -16 8 -3 1 9 5 18 11 20 5 2
6 9 1 16 -6 11 -10 11 -18 0z"/>
<path d="M1403 1405 c0 -22 2 -30 4 -17 2 12 2 30 0 40 -3 9 -5 -1 -4 -23z"/>
<path d="M1560 1372 c-21 -71 -22 -81 -5 -42 13 27 18 32 25 20 7 -11 10 -8
10 15 0 54 -15 58 -30 7z"/>
<path d="M1676 1405 c-11 -8 -17 -17 -14 -20 2 -3 13 4 23 15 21 23 18 25 -9
5z"/>
<path d="M2314 1395 c-3 -8 -4 -20 -1 -27 3 -7 6 -3 6 9 1 12 9 24 19 26 16 4
16 5 -1 6 -10 0 -20 -6 -23 -14z"/>
<path d="M1632 1345 c-7 -14 -12 -31 -12 -38 1 -7 7 3 16 22 17 39 13 54 -4
16z"/>
<path d="M2081 1354 c0 -11 3 -14 6 -6 3 7 2 16 -1 19 -3 4 -6 -2 -5 -13z"/>
<path d="M2358 1363 c7 -3 16 -2 19 1 4 3 -2 6 -13 5 -11 0 -14 -3 -6 -6z"/>
<path d="M1171 1332 c-1 -23 -5 -31 -13 -26 -10 6 -10 4 0 -7 18 -19 30 0 21
36 l-7 30 -1 -33z"/>
<path d="M711 1334 c0 -11 3 -14 6 -6 3 7 2 16 -1 19 -3 4 -6 -2 -5 -13z"/>
<path d="M2292 1338 c-8 -8 -9 -15 -1 -25 8 -9 8 -13 0 -13 -6 0 -11 -5 -11
-11 0 -8 5 -8 15 1 8 7 23 9 32 6 15 -5 14 -3 -2 10 -11 8 -19 22 -17 30 4 17
0 18 -16 2z"/>
<path d="M2487 1343 c-6 -6 54 -53 67 -53 18 0 2 19 -20 24 -17 5 -24 12 -20
21 5 15 -15 21 -27 8z"/>
<path d="M3190 1311 c0 -5 6 -13 13 -18 16 -10 77 -10 77 0 0 4 -12 7 -26 7
-14 0 -34 5 -45 10 -12 7 -19 7 -19 1z"/>
<path d="M1890 1305 c0 -15 18 -40 24 -34 3 3 -1 14 -9 25 -8 10 -14 15 -15 9z"/>
<path d="M2720 1299 c0 -6 7 -17 15 -25 8 -9 15 -26 15 -39 0 -13 4 -26 8 -29
5 -3 6 8 4 25 -5 33 6 37 46 13 25 -15 26 -15 7 0 -41 34 -95 65 -95 55z"/>
<path d="M1108 1293 c6 -2 18 -2 25 0 6 3 1 5 -13 5 -14 0 -19 -2 -12 -5z"/>
<path d="M2080 1285 c0 -5 9 -23 20 -40 26 -39 26 -25 0 17 -11 18 -20 29 -20
23z"/>
<path d="M2308 1284 c-7 -6 8 -63 18 -73 4 -3 3 8 -1 24 -4 17 -8 36 -8 43 0
14 -1 14 -9 6z"/>
<path d="M3316 1271 c18 -11 39 -30 48 -42 9 -13 16 -19 16 -14 -1 22 -61 75
-85 75 -5 0 4 -9 21 -19z"/>
<path d="M1613 1235 c0 -27 2 -38 4 -22 2 15 2 37 0 50 -2 12 -4 0 -4 -28z"/>
<path d="M2585 1264 c36 -28 61 -36 30 -10 -16 14 -34 26 -40 26 -5 -1 -1 -8
10 -16z"/>
<path d="M2911 1253 c0 -25 1 -26 9 -8 12 27 12 35 0 35 -5 0 -10 -12 -9 -27z"/>
<path d="M1032 1240 c0 -19 2 -27 5 -17 2 9 2 25 0 35 -3 9 -5 1 -5 -18z"/>
<path d="M3273 1238 c18 -18 34 -29 36 -24 3 8 -47 55 -61 56 -3 0 8 -15 25
-32z"/>
<path d="M3096 1252 c-3 -5 7 -29 23 -54 20 -31 27 -54 25 -74 -4 -24 -3 -25
5 -9 l9 20 8 -20 c18 -40 9 -118 -19 -173 -15 -31 -22 -52 -15 -50 7 3 26 30
42 62 29 56 30 57 44 34 10 -18 12 -18 7 -3 -20 56 -41 155 -33 155 4 0 18 -9
30 -19 13 -11 33 -28 45 -39 13 -10 30 -32 39 -48 13 -23 15 -24 11 -6 -7 32
13 28 61 -14 23 -19 42 -31 42 -26 0 13 -59 59 -135 105 -33 19 -71 46 -85 59
-13 13 -28 22 -33 20 -4 -1 -10 6 -14 15 -10 28 -51 74 -57 65z"/>
<path d="M2711 1219 c-1 -26 5 -41 21 -55 20 -17 21 -17 9 -1 -8 10 -18 35
-22 55 l-7 37 -1 -36z"/>
<path d="M3170 1240 c0 -5 5 -10 11 -10 5 0 7 5 4 10 -3 6 -8 10 -11 10 -2 0
-4 -4 -4 -10z"/>
<path d="M2954 1208 c0 -21 -7 -45 -16 -55 -18 -19 -41 -73 -32 -73 3 0 10 13
15 30 6 16 15 28 20 27 6 -1 17 16 24 38 17 48 17 48 6 40 -5 -3 -11 3 -14 12
-2 10 -4 1 -3 -19z"/>
<path d="M1223 1220 c-13 -5 -23 -12 -23 -15 0 -9 16 -5 36 10 22 16 19 18
-13 5z"/>
<path d="M2840 1219 c0 -4 7 -20 15 -35 8 -16 15 -22 15 -13 0 14 -29 61 -30
48z"/>
<path d="M1150 1189 c0 -11 4 -18 10 -14 5 3 7 12 3 20 -7 21 -13 19 -13 -6z"/>
<path d="M3043 1178 c4 -11 1 -18 -7 -18 -7 0 -23 -11 -36 -25 -14 -14 -31
-23 -40 -20 -11 3 -16 -2 -17 -17 -2 -17 0 -19 7 -8 5 8 12 12 15 8 3 -3 18 5
32 18 15 14 32 23 39 20 18 -7 29 33 14 48 -10 8 -12 7 -7 -6z"/>
<path d="M3259 1166 c7 -8 31 -24 54 -36 30 -16 37 -17 28 -6 -9 11 -10 16 -2
16 6 0 11 5 11 11 0 6 -6 9 -12 6 -7 -2 -28 2 -47 9 -42 18 -46 17 -32 0z"/>
<path d="M2444 1123 c21 -43 23 -53 11 -53 -19 0 -113 46 -137 68 -16 13 -18
13 -24 -2 -3 -9 -10 -13 -15 -10 -5 2 -6 -13 -3 -36 4 -24 2 -40 -4 -40 -6 0
-10 -16 -9 -35 1 -20 7 -35 14 -35 9 0 11 10 7 30 -5 20 -3 30 6 30 19 0 3
-103 -26 -169 l-25 -55 26 24 25 23 0 -39 c0 -22 7 -49 16 -60 15 -19 16 -19
9 1 -19 56 -17 135 3 135 4 0 16 -13 27 -29 11 -17 21 -28 24 -26 2 3 -8 23
-24 45 -25 37 -27 44 -20 105 5 52 4 68 -9 81 -9 8 -16 27 -16 42 0 25 1 25
15 6 8 -10 15 -26 15 -34 0 -11 2 -12 8 -2 7 9 13 8 27 -8 10 -11 21 -17 25
-15 14 9 98 -33 109 -54 15 -27 14 -65 -4 -109 -13 -33 -13 -35 0 -17 9 11 18
30 22 43 3 13 10 21 17 19 7 -3 11 -34 10 -88 -1 -50 2 -76 7 -64 4 11 8 37 8
58 1 45 14 48 32 5 7 -17 14 -27 16 -21 2 6 -12 43 -33 83 -20 39 -34 74 -31
76 9 10 47 -21 74 -59 32 -47 34 -141 2 -122 -12 8 -11 -26 1 -45 8 -13 10
-13 10 1 0 9 9 37 20 63 21 46 21 46 2 90 -21 45 -59 80 -128 114 -41 21 -54
38 -54 71 0 10 -12 28 -26 42 l-26 24 26 -52z"/>
<path d="M1621 1144 c0 -11 3 -14 6 -6 3 7 2 16 -1 19 -3 4 -6 -2 -5 -13z"/>
<path d="M3360 1150 c0 -13 11 -13 30 0 12 8 11 10 -7 10 -13 0 -23 -4 -23
-10z"/>
<path d="M3410 1156 c0 -2 9 -6 20 -9 11 -3 20 -1 20 4 0 5 -9 9 -20 9 -11 0
-20 -2 -20 -4z"/>
<path d="M1124 1115 c-9 -19 -8 -22 8 -17 10 2 18 10 18 18 0 23 -15 23 -26
-1z"/>
<path d="M1375 1099 c-33 -9 -82 -28 -110 -43 -50 -26 -75 -32 -75 -18 0 4
-10 18 -21 32 l-21 25 21 -36 c16 -28 18 -38 8 -49 -10 -10 -9 -12 6 -7 14 5
17 0 18 -26 1 -23 3 -26 6 -9 6 30 18 28 43 -9 18 -25 21 -38 15 -76 -4 -25
-9 -53 -11 -62 -3 -9 2 -5 10 9 8 14 15 33 16 43 0 26 17 20 28 -10 6 -17 11
-21 11 -11 1 10 -6 33 -15 52 -15 31 -15 38 -1 80 9 26 12 44 6 41 -5 -4 -9
-12 -9 -18 0 -7 -7 -21 -15 -31 -15 -19 -15 -19 -40 4 -14 13 -25 27 -25 32 0
9 93 58 110 58 6 0 8 -4 5 -10 -10 -16 11 -12 25 5 7 8 18 15 25 15 8 0 15 4
17 10 2 5 19 11 40 12 20 2 34 6 32 10 -6 9 -30 6 -99 -13z"/>
<path d="M3530 1113 c0 -4 5 -15 10 -23 8 -13 10 -13 10 2 0 9 -4 20 -10 23
-5 3 -10 3 -10 -2z"/>
<path d="M1860 1099 c0 -5 5 -7 10 -4 6 3 10 8 10 11 0 2 -4 4 -10 4 -5 0 -10
-5 -10 -11z"/>
<path d="M1893 1078 c2 -15 0 -29 -6 -31 -5 -1 -2 -9 7 -16 14 -12 16 -10 16
15 0 16 -5 36 -11 44 -8 12 -10 9 -6 -12z"/>
<path d="M2002 1060 c0 -19 2 -27 5 -17 2 9 2 25 0 35 -3 9 -5 1 -5 -18z"/>
<path d="M2989 1057 c5 -12 10 -26 11 -32 6 -31 16 -32 16 -2 -1 22 -8 39 -18
46 -15 9 -16 8 -9 -12z"/>
<path d="M1017 974 c-114 -121 -159 -215 -127 -264 7 -11 10 -2 10 33 0 65 35
129 111 202 34 33 59 51 55 40 -4 -11 -10 -36 -12 -55 l-5 -35 15 34 c9 18 16
41 16 51 0 10 7 34 15 54 8 20 14 36 13 35 -2 0 -43 -43 -91 -95z"/>
<path d="M1691 1043 c-10 -26 -10 -27 4 -9 8 11 15 23 15 28 0 15 -7 8 -19
-19z"/>
<path d="M1763 1055 c-8 -22 6 -33 17 -15 13 20 12 30 0 30 -6 0 -13 -7 -17
-15z"/>
<path d="M2078 1063 c7 -3 16 -2 19 1 4 3 -2 6 -13 5 -11 0 -14 -3 -6 -6z"/>
<path d="M1625 1049 c-4 -6 -5 -12 -2 -15 2 -3 7 2 10 11 7 17 1 20 -8 4z"/>
<path d="M2133 1053 c4 -7 -1 -33 -13 -57 -11 -25 -20 -58 -19 -73 0 -25 2
-23 13 12 7 23 17 49 23 59 9 16 12 15 32 -17 24 -39 25 -51 10 -109 -17 -64
2 -120 58 -177 l46 -46 -41 46 c-55 64 -73 129 -51 186 l11 28 14 -30 c8 -19
13 -24 14 -12 0 10 -9 36 -21 58 -11 23 -18 47 -15 54 3 8 -6 21 -20 30 -14 9
-22 20 -19 24 2 5 -3 15 -12 22 -11 9 -14 10 -10 2z"/>
<path d="M2942 1030 c0 -14 2 -19 5 -12 2 6 2 18 0 25 -3 6 -5 1 -5 -13z"/>
<path d="M3086 1005 c-39 -62 -29 -66 12 -4 18 27 29 49 25 49 -5 0 -21 -20
-37 -45z"/>
<path d="M1510 1031 c0 -4 -18 -21 -40 -36 -49 -34 -46 -44 4 -14 37 22 66 59
46 59 -5 0 -10 -4 -10 -9z"/>
<path d="M2887 1022 c-2 -11 -1 -37 3 -58 7 -37 8 -36 9 19 1 58 -3 72 -12 39z"/>
<path d="M2406 1005 c8 -37 14 -45 14 -19 0 10 -5 26 -10 34 -8 11 -9 7 -4
-15z"/>
<path d="M1615 1011 c-3 -5 -2 -12 3 -15 5 -3 9 1 9 9 0 17 -3 19 -12 6z"/>
<path d="M1810 1010 c-12 -7 -12 -10 2 -15 9 -4 25 -5 35 -3 17 4 16 5 -3 15
-12 7 -26 8 -34 3z"/>
<path d="M2010 996 c0 -27 -16 -43 -23 -24 -2 7 -4 1 -3 -13 1 -16 7 -26 16
-25 26 2 23 -50 -6 -100 l-28 -47 -18 23 c-22 27 -23 39 -2 68 8 12 11 22 6
22 -5 0 -17 -16 -28 -35 -10 -19 -22 -35 -26 -35 -5 0 -8 -5 -8 -11 0 -8 4 -8
14 0 11 9 17 6 31 -16 11 -16 14 -31 9 -38 -5 -7 -25 -35 -44 -62 -21 -30 -41
-48 -49 -45 -35 12 14 -161 63 -223 9 -11 0 13 -20 52 -29 58 -34 79 -29 105
9 43 55 128 69 128 11 -1 50 -58 93 -135 12 -22 22 -33 23 -24 0 8 -14 37 -31
64 -71 112 -58 141 24 56 l57 -59 -16 -63 c-9 -35 -21 -72 -26 -83 -7 -13 -7
-16 1 -12 5 4 18 31 27 60 19 61 37 67 65 22 10 -17 19 -26 19 -20 0 5 -13 31
-30 57 -29 47 -36 79 -24 111 5 13 9 14 21 4 9 -7 8 0 -5 23 -11 19 -22 53
-26 76 -3 24 -15 58 -26 75 -11 18 -23 55 -26 81 -5 32 -13 51 -25 58 -16 8
-19 6 -19 -15z m64 -244 c9 -40 14 -78 10 -83 -7 -12 -94 73 -94 91 0 18 52
82 60 73 5 -4 15 -41 24 -81z"/>
<path d="M1689 1005 c-1 -3 -2 -8 -3 -12 -13 -51 -28 -87 -45 -111 -11 -16
-18 -32 -16 -36 3 -3 2 -4 -2 -1 -3 3 -16 -4 -27 -14 -24 -23 -134 -81 -153
-81 -7 0 -13 9 -13 21 0 11 -4 29 -10 39 -12 22 4 42 56 66 19 9 33 19 30 21
-6 7 -59 -23 -95 -53 -29 -24 -111 -168 -111 -194 0 -6 21 30 46 79 26 50 50
91 53 91 4 0 12 -18 18 -40 10 -38 9 -42 -16 -61 -20 -16 -21 -18 -4 -10 30
15 32 14 44 -11 9 -21 9 -20 4 5 -5 25 -1 29 42 47 27 11 66 29 87 40 70 37
73 -6 5 -79 -40 -45 -59 -73 -59 -91 1 -11 4 -9 12 5 19 34 99 125 110 125 6
0 7 -16 3 -42 -4 -31 -3 -39 4 -28 15 21 14 170 0 170 -6 0 3 16 20 35 17 20
31 42 31 50 0 25 17 17 38 -18 19 -33 19 -34 1 -70 -10 -19 -23 -39 -29 -42
-15 -9 -12 -22 5 -22 8 0 19 13 24 29 6 15 17 28 25 28 18 0 21 16 5 25 -7 5
-6 12 4 23 8 10 20 28 26 42 11 24 11 24 -3 6 -9 -11 -16 -23 -16 -28 0 -19
-19 -5 -46 35 -16 23 -32 44 -37 45 -4 2 -5 8 -1 13 3 5 3 9 0 9 -3 0 -7 -2
-7 -5z"/>
<path d="M1940 1006 c0 -2 8 -10 18 -17 15 -13 16 -12 3 4 -13 16 -21 21 -21
13z"/>
<path d="M3322 980 c0 -14 2 -19 5 -12 2 6 2 18 0 25 -3 6 -5 1 -5 -13z"/>
<path d="M1568 963 c-8 -10 -19 -25 -23 -33 -8 -13 -7 -13 9 -1 16 14 41 51
33 51 -2 0 -11 -8 -19 -17z"/>
<path d="M1816 971 c-3 -4 6 -7 20 -5 35 3 43 14 11 14 -14 0 -28 -4 -31 -9z"/>
<path d="M2246 955 c-9 -26 -7 -32 5 -12 6 10 9 21 6 23 -2 3 -7 -2 -11 -11z"/>
<path d="M1850 958 c0 -2 4 -18 9 -36 6 -20 6 -32 0 -32 -5 0 -9 -10 -9 -23 0
-33 -45 -97 -91 -130 -45 -33 -50 -25 -14 23 14 19 25 43 24 54 0 14 -4 9 -12
-14 -9 -24 -18 -34 -30 -32 -12 2 -17 -4 -17 -20 0 -13 -9 -40 -19 -61 -14
-28 -16 -37 -6 -37 8 0 16 -8 18 -17 3 -10 5 -4 6 12 1 25 13 40 66 83 36 29
67 52 69 52 4 0 -10 -39 -53 -148 -25 -63 -26 -83 -5 -170 21 -88 23 -96 30
-89 3 3 -4 40 -16 83 -26 91 -23 125 20 215 24 50 29 57 25 31 -3 -20 -1 -31
5 -27 6 3 10 16 10 28 1 12 7 39 14 59 7 21 9 39 4 40 -4 2 -2 25 6 51 16 54
9 100 -17 105 -9 2 -17 2 -17 0z"/>
<path d="M3221 944 c0 -11 3 -14 6 -6 3 7 2 16 -1 19 -3 4 -6 -2 -5 -13z"/>
<path d="M1600 943 c0 -6 -21 -42 -46 -79 -34 -52 -38 -61 -14 -34 36 40 74
109 66 118 -3 3 -6 1 -6 -5z"/>
<path d="M1185 910 c-3 -11 -20 -28 -36 -37 -27 -16 -53 -59 -99 -168 -14 -34
-21 -77 -12 -71 5 3 12 20 16 37 3 17 22 65 42 105 34 71 68 109 86 98 13 -8
9 -66 -7 -99 l-15 -30 20 24 c16 18 20 38 20 92 0 71 -4 84 -15 49z"/>
<path d="M2412 900 c0 -19 2 -27 5 -17 2 9 2 25 0 35 -3 9 -5 1 -5 -18z"/>
<path d="M3330 917 c0 -10 7 -25 15 -33 19 -19 19 -14 0 22 -11 21 -15 24 -15
11z"/>
<path d="M3045 895 c10 -44 53 -131 73 -146 15 -13 16 -12 4 3 -8 9 -29 52
-49 95 -19 43 -32 65 -28 48z"/>
<path d="M3216 905 c-9 -26 -7 -32 5 -12 6 10 9 21 6 23 -2 3 -7 -2 -11 -11z"/>
<path d="M2941 864 c0 -16 4 -38 9 -49 6 -13 7 -5 3 25 -7 53 -13 66 -12 24z"/>
<path d="M3194 858 c-37 -63 -37 -63 -11 -33 25 28 33 45 23 45 -3 0 -8 -6
-12 -12z"/>
<path d="M2461 847 c-6 -8 -18 -31 -26 -51 -16 -38 -16 -38 -38 -20 l-22 19
20 -23 c17 -20 18 -27 6 -55 -24 -60 -42 -128 -38 -140 2 -7 8 5 12 26 4 20
11 37 15 37 4 0 23 -17 40 -37 18 -20 63 -62 101 -94 l68 -57 -19 -38 c-24
-46 -20 -54 9 -18 19 24 24 26 45 14 13 -7 29 -22 34 -34 6 -11 11 -15 11 -8
1 7 -10 23 -24 36 -30 28 -30 28 -8 78 20 45 28 48 37 12 4 -15 9 -24 12 -22
2 3 -2 23 -10 45 -13 38 -13 43 11 84 22 38 22 41 4 25 -16 -15 -21 -16 -21
-5 -1 10 -4 9 -11 -4 -6 -9 -14 -15 -20 -12 -5 4 -9 -4 -9 -17 0 -30 -32 -118
-42 -118 -11 0 -73 55 -145 127 -55 55 -65 83 -40 117 12 17 15 17 51 -7 51
-36 105 -52 119 -38 8 8 3 11 -18 11 -32 0 -107 33 -126 56 -10 13 -8 25 14
70 27 54 29 66 8 41z m196 -279 c-3 -8 -6 -5 -6 6 -1 11 2 17 5 13 3 -3 4 -12
1 -19z"/>
<path d="M1316 794 c-4 -20 -5 -38 -3 -40 3 -3 8 11 11 32 4 20 5 38 3 40 -3
3 -8 -11 -11 -32z"/>
<path d="M2921 784 c0 -11 3 -14 6 -6 3 7 2 16 -1 19 -3 4 -6 -2 -5 -13z"/>
<path d="M2961 775 c0 -11 4 -27 9 -35 9 -13 10 -13 9 0 0 8 -4 24 -9 35 l-9
20 0 -20z"/>
<path d="M2532 750 c0 -14 2 -19 5 -12 2 6 2 18 0 25 -3 6 -5 1 -5 -13z"/>
<path d="M2876 724 c-4 -17 -17 -42 -28 -54 -12 -13 -15 -21 -7 -18 20 7 51
64 47 85 -3 12 -7 8 -12 -13z"/>
<path d="M2980 714 c0 -6 7 -19 16 -30 14 -18 14 -18 3 6 -14 31 -19 36 -19
24z"/>
<path d="M1451 655 c-1 -11 -8 -31 -17 -44 -16 -22 -16 -23 4 -12 15 8 21 8
25 -2 2 -6 6 -10 9 -7 2 3 -1 23 -8 45 -7 22 -13 31 -13 20z"/>
<path d="M1631 624 c0 -11 3 -14 6 -6 3 7 2 16 -1 19 -3 4 -6 -2 -5 -13z"/>
<path d="M1620 586 c0 -14 -10 -25 -97 -101 -55 -48 -116 -175 -85 -175 5 0
16 27 26 60 13 44 30 73 62 105 64 67 79 61 49 -20 -23 -60 -35 -117 -15 -70
31 76 50 125 54 146 3 13 8 34 12 47 3 12 4 22 0 22 -3 0 -6 -6 -6 -14z"/>
<path d="M1472 560 c0 -14 2 -19 5 -12 2 6 2 18 0 25 -3 6 -5 1 -5 -13z"/>
<path d="M1356 515 c-3 -9 -6 -26 -5 -38 1 -16 4 -12 10 12 10 34 6 55 -5 26z"/>
<path d="M2171 505 c1 -19 18 -51 18 -35 0 8 -4 22 -9 30 -5 8 -9 11 -9 5z"/>
<path d="M1457 465 c-23 -48 -21 -57 4 -18 11 18 19 38 17 44 -2 6 -11 -6 -21
-26z"/>
<path d="M2365 470 c3 -19 10 -39 15 -44 7 -7 7 -1 1 19 -17 54 -21 61 -16 25z"/>
<path d="M2191 440 c1 -8 5 -26 9 -40 l8 -25 1 25 c0 14 -4 32 -9 40 -9 13
-10 13 -9 0z"/>
<path d="M2710 425 c0 -11 5 -27 10 -35 8 -12 10 -12 10 5 0 11 -5 27 -10 35
-8 12 -10 12 -10 -5z"/>
<path d="M1425 399 c-4 -6 -5 -12 -2 -15 2 -3 7 2 10 11 7 17 1 20 -8 4z"/>
<path d="M2202 340 c0 -19 2 -27 5 -17 2 9 2 25 0 35 -3 9 -5 1 -5 -18z"/>
<path d="M2551 344 c0 -11 3 -14 6 -6 3 7 2 16 -1 19 -3 4 -6 -2 -5 -13z"/>
<path d="M2686 335 c4 -8 8 -15 10 -15 2 0 4 7 4 15 0 8 -4 15 -10 15 -5 0 -7
-7 -4 -15z"/>
<path d="M1561 324 c0 -11 3 -14 6 -6 3 7 2 16 -1 19 -3 4 -6 -2 -5 -13z"/>
<path d="M2551 304 c0 -11 3 -14 6 -6 3 7 2 16 -1 19 -3 4 -6 -2 -5 -13z"/>
<path d="M1430 291 c0 -6 5 -13 10 -16 6 -3 10 1 10 9 0 9 -4 16 -10 16 -5 0
-10 -4 -10 -9z"/>
<path d="M2190 289 c0 -5 5 -7 10 -4 6 3 10 8 10 11 0 2 -4 4 -10 4 -5 0 -10
-5 -10 -11z"/>
</g>
</svg>
