<?xml version="1.0" standalone="no"?>
<!DOCTYPE svg PUBLIC "-//W3C//DTD SVG 20010904//EN"
 "http://www.w3.org/TR/2001/REC-SVG-20010904/DTD/svg10.dtd">
<svg version="1.0" xmlns="http://www.w3.org/2000/svg"
 width="282.000000pt" height="527.000000pt" viewBox="0 0 282.000000 527.000000"
 preserveAspectRatio="xMidYMid meet">

<g transform="translate(0.000000,527.000000) scale(0.100000,-0.100000)"
fill="#000000" stroke="none">
<path d="M417 5054 c-40 -40 -49 -82 -23 -103 12 -11 7 -24 -35 -88 -55 -85
-79 -153 -79 -226 l0 -49 -78 73 c-43 41 -104 86 -135 102 -64 31 -67 32 -67
14 0 -7 16 -21 35 -30 34 -16 129 -96 122 -103 -2 -2 -25 8 -52 21 -26 14 -61
25 -77 25 -23 0 -28 -4 -28 -25 0 -21 5 -25 30 -25 126 0 259 -136 314 -319
17 -57 20 -219 6 -276 -5 -21 -8 -24 -9 -9 -1 26 -46 68 -95 88 -21 9 -41 16
-44 16 -2 0 -2 -30 1 -66 4 -54 10 -71 33 -95 29 -31 71 -38 92 -17 17 17 16
-1 -8 -100 -23 -95 -62 -180 -68 -147 -9 55 -26 75 -85 105 -87 44 -91 42 -83
-32 12 -102 54 -155 115 -146 l30 4 -17 -29 c-18 -30 -96 -107 -170 -167 -43
-35 -43 -35 -40 -94 l3 -58 90 78 c224 194 398 393 483 552 52 98 55 119 5 33
-43 -72 -164 -206 -213 -235 l-32 -18 16 24 c22 34 43 137 57 282 13 141 5
207 -48 384 -58 197 -56 306 10 454 21 50 38 73 63 87 31 19 34 24 33 68 0 26
-4 56 -8 66 -6 16 -11 14 -44 -19z"/>
<path d="M231 4939 c13 -57 34 -79 75 -79 41 0 54 29 29 66 -15 24 -39 37 -90
50 -23 6 -23 5 -14 -37z"/>
<path d="M21 4924 c-15 -19 -21 -41 -21 -76 l0 -49 32 3 c43 4 56 38 38 102
-7 25 -16 46 -21 46 -4 0 -17 -12 -28 -26z"/>
<path d="M433 4855 c-51 -22 -83 -59 -83 -97 0 -37 29 -92 57 -106 40 -22 119
-29 164 -16 54 16 188 77 189 85 0 11 -87 78 -147 115 -63 38 -123 44 -180 19z"/>
<path d="M494 4576 c-102 -49 -124 -73 -124 -141 0 -62 27 -89 82 -82 82 11
113 53 129 178 5 45 8 83 7 85 -2 1 -44 -16 -94 -40z"/>
<path d="M0 4501 c0 -64 2 -70 21 -73 50 -7 108 -187 94 -290 l-8 -53 -14 42
c-15 43 -62 103 -82 103 -7 0 -11 -38 -11 -115 0 -109 1 -115 20 -115 12 0 32
11 45 25 38 37 30 14 -20 -61 -33 -49 -45 -76 -45 -103 l1 -36 41 45 c22 25
57 78 76 119 30 62 36 88 40 157 4 73 1 89 -22 139 -14 31 -41 78 -60 104 -27
37 -32 50 -24 65 18 33 -13 116 -44 116 -4 0 -8 -31 -8 -69z"/>
<path d="M680 4490 c0 -58 17 -144 36 -182 17 -34 69 -65 121 -74 36 -5 45 -3
67 19 14 14 28 37 32 52 9 37 -11 97 -43 130 -26 26 -178 105 -202 105 -7 0
-11 -20 -11 -50z"/>
<path d="M80 4456 c-18 -22 -8 -57 21 -79 21 -15 35 -18 66 -13 70 12 73 21
26 66 -45 43 -90 53 -113 26z"/>
<path d="M1166 4434 c-156 -67 -208 -133 -193 -246 7 -54 34 -79 91 -85 62 -7
119 29 148 94 18 42 40 223 30 253 -5 14 -8 13 -76 -16z"/>
<path d="M206 4317 l-39 -12 35 -37 c47 -50 81 -62 119 -43 43 23 38 65 -12
90 -33 17 -50 18 -103 2z"/>
<path d="M1350 4276 c-7 -28 -15 -71 -17 -96 -6 -72 36 -124 118 -144 24 -5
29 -2 43 34 38 96 11 177 -76 226 l-54 31 -14 -51z"/>
<path d="M659 4228 c-64 -61 -79 -100 -55 -146 18 -35 38 -45 70 -32 60 23 81
100 53 194 l-12 38 -56 -54z"/>
<path d="M928 4175 c115 -231 147 -414 103 -587 -11 -42 -47 -133 -80 -203
l-60 -128 0 67 c0 126 -76 234 -219 309 -83 44 -104 48 -41 9 60 -39 135 -124
171 -196 29 -57 30 -65 24 -136 -13 -133 -65 -213 -164 -250 -56 -21 -200 -40
-307 -39 -59 0 -59 0 -29 13 66 29 103 114 83 189 -15 59 -86 207 -98 207 -15
0 -88 -95 -118 -154 -53 -103 -18 -217 77 -255 25 -10 25 -10 -7 -10 -33 -1
-122 -27 -184 -54 l-36 -16 18 37 c25 49 24 80 -7 138 -54 102 -54 102 -54
-159 l0 -237 60 44 c77 57 190 104 282 116 126 17 457 28 607 19 244 -13 380
19 463 110 27 28 69 97 108 176 63 128 64 129 71 95 11 -51 50 -80 107 -79 26
0 65 6 87 13 l40 12 -48 51 c-60 64 -103 81 -149 58 l-32 -16 29 32 c17 18 24
29 18 25 -17 -9 -17 -9 12 48 45 89 29 160 -52 224 l-39 31 -32 -65 c-54 -108
-36 -183 53 -226 l45 -22 -44 -46 c-24 -25 -71 -84 -104 -131 -77 -108 -146
-172 -220 -199 -48 -18 -72 -21 -147 -17 -97 5 -338 28 -344 33 -2 2 21 30 50
63 30 33 90 123 134 200 77 135 95 159 95 126 0 -19 57 -55 88 -55 27 0 85 29
126 63 l29 23 -63 28 c-44 20 -74 27 -105 24 l-43 -3 38 45 c41 49 124 128
238 228 92 80 132 148 131 217 l-1 50 -9 -40 c-12 -49 -58 -117 -116 -169 -42
-37 -43 -38 -33 -12 25 66 -3 139 -82 214 l-35 33 -16 -38 c-36 -91 -47 -145
-37 -183 11 -42 46 -78 85 -88 l27 -8 -60 -51 c-32 -28 -76 -74 -97 -102 -21
-28 -40 -49 -42 -48 -1 2 4 25 12 52 23 74 19 203 -10 329 -29 127 -52 178
-113 255 -65 81 -67 82 -34 16z"/>
<path d="M1570 4118 c-43 -29 -71 -82 -68 -128 3 -32 6 -36 43 -43 93 -20 172
29 203 123 l19 60 -31 0 c-17 0 -53 3 -81 6 -42 5 -56 2 -85 -18z"/>
<path d="M470 4075 c0 -23 29 -88 43 -97 21 -13 67 -9 73 7 17 43 -19 82 -88
99 -22 5 -28 3 -28 -9z"/>
<path d="M755 4043 c-38 -9 -38 -21 -2 -70 63 -85 90 -106 149 -111 48 -4 56
-1 81 23 32 32 33 44 10 92 -25 54 -65 73 -148 72 -38 -1 -79 -3 -90 -6z"/>
<path d="M580 3904 c-18 -21 -2 -66 30 -81 26 -12 120 0 120 16 0 4 -16 24
-37 44 -40 41 -90 50 -113 21z"/>
<path d="M1486 3874 c-22 -22 -20 -41 9 -69 27 -28 80 -33 129 -12 l28 12 -46
43 c-49 46 -92 55 -120 26z"/>
<path d="M683 3781 c-47 -22 -67 -52 -59 -86 13 -51 87 -38 111 20 18 42 19
85 3 85 -7 0 -32 -9 -55 -19z"/>
<path d="M796 3734 c10 -79 14 -96 30 -129 20 -42 67 -65 133 -65 l51 0 0 48
c0 60 -34 130 -76 154 -16 10 -55 20 -86 24 l-57 7 5 -39z"/>
<path d="M1290 3676 c-18 -22 -8 -57 22 -79 24 -18 31 -18 77 -7 28 6 51 15
51 19 0 4 -17 24 -38 44 -41 40 -89 50 -112 23z"/>
<path d="M0 3540 c0 -60 2 -110 5 -110 15 0 45 70 45 103 0 33 -32 117 -45
117 -3 0 -5 -49 -5 -110z"/>
<path d="M566 3627 c-22 -16 -35 -110 -17 -122 16 -10 80 41 87 70 12 50 -30
81 -70 52z"/>
<path d="M600 3487 c-19 -12 -53 -47 -76 -77 l-42 -55 46 -12 c26 -6 78 -12
116 -12 65 -1 70 1 102 33 44 44 47 94 8 125 -37 29 -110 28 -154 -2z"/>
<path d="M1780 3472 c-19 -11 -42 -31 -50 -46 -15 -27 -14 -29 27 -65 47 -42
109 -65 150 -55 29 7 113 55 113 64 0 3 -24 30 -54 59 -48 47 -60 54 -103 58
-35 3 -58 -1 -83 -15z"/>
<path d="M1320 3400 c0 -91 15 -137 55 -168 37 -29 95 -29 121 -1 26 29 25
110 -2 145 -20 27 -113 88 -151 99 -23 6 -23 5 -23 -75z"/>
<path d="M1198 3273 c-47 -72 -68 -122 -68 -165 0 -50 19 -82 61 -103 26 -14
32 -14 60 0 39 20 73 92 63 132 -8 31 -43 104 -72 146 l-19 28 -25 -38z"/>
<path d="M485 3223 c17 -124 47 -167 114 -161 28 2 39 9 49 31 12 25 12 35 -3
72 -14 38 -25 48 -77 75 -85 42 -92 41 -83 -17z"/>
<path d="M942 3198 c-20 -20 -14 -56 13 -74 18 -12 39 -15 75 -12 28 3 53 8
57 12 4 3 -11 24 -32 46 -41 42 -88 53 -113 28z"/>
<path d="M1609 2381 c-50 -50 -35 -105 41 -150 52 -31 110 -26 217 20 l46 20
-24 26 c-13 14 -50 45 -83 69 -52 39 -64 44 -113 44 -47 0 -59 -4 -84 -29z"/>
<path d="M1401 2329 c-13 -5 -65 -14 -115 -19 -102 -11 -152 -28 -296 -100
-60 -30 -106 -47 -117 -44 -13 4 -14 3 -5 -3 23 -17 -264 -162 -428 -215 -88
-29 -324 -86 -393 -94 l-47 -5 0 -113 0 -114 103 -4 c108 -4 158 1 164 18 4
11 -74 38 -142 50 -64 11 -62 15 26 43 115 37 209 81 209 97 0 8 12 16 28 20
62 13 96 28 189 80 113 62 204 94 274 94 61 0 106 -36 140 -112 22 -48 24 -66
24 -203 -1 -176 -4 -188 -121 -439 -105 -223 -136 -319 -142 -432 -5 -106 11
-174 57 -242 26 -39 27 -47 16 -69 -17 -33 -3 -92 29 -119 25 -22 123 -60 132
-52 6 6 -14 107 -27 141 -12 29 -55 57 -87 57 -16 0 -24 14 -40 78 -52 196
-52 251 -2 380 16 42 59 130 95 195 108 197 136 272 150 400 l7 59 21 -44 c35
-71 130 -157 242 -217 188 -102 267 -173 311 -277 33 -79 17 -177 -43 -264
-10 -15 0 -10 26 15 23 22 52 61 64 87 20 43 22 45 35 27 24 -35 49 -42 103
-29 27 7 49 16 49 20 0 4 -18 24 -40 44 -44 40 -82 46 -112 19 -17 -15 -18
-15 -18 5 0 12 -9 46 -21 77 -36 96 -137 190 -343 316 -122 75 -191 145 -243
247 -24 46 -43 92 -43 103 0 28 30 37 157 48 97 8 136 17 297 72 180 62 186
63 238 52 29 -6 55 -9 56 -8 2 2 -14 13 -37 24 -77 40 -181 27 -376 -47 -153
-57 -242 -66 -294 -30 -19 12 -58 57 -85 98 -32 47 -63 81 -85 92 l-33 17 92
46 c51 26 102 50 115 55 22 8 22 8 7 -34 -15 -40 -14 -45 7 -89 13 -26 36 -55
55 -67 33 -20 212 -67 221 -58 9 8 -25 122 -53 178 -32 64 -71 91 -136 93 -25
1 -39 5 -33 8 31 18 192 69 201 65 7 -3 6 -5 -1 -5 -21 -2 -15 -73 10 -121 31
-62 65 -84 142 -90 61 -5 64 -4 60 15 -3 11 -9 47 -15 79 -15 86 -59 126 -141
126 -55 0 -46 7 22 19 l54 9 -45 0 c-25 0 -56 -4 -69 -9z"/>
<path d="M1895 2078 c-60 -21 -85 -59 -69 -102 6 -17 59 -22 81 -8 16 10 43
75 43 102 0 22 -10 24 -55 8z"/>
<path d="M1687 1953 c-9 -8 -9 -56 0 -78 5 -15 102 -69 110 -62 8 9 -17 111
-32 127 -17 19 -64 27 -78 13z"/>
<path d="M1956 1950 c-68 -21 -85 -78 -43 -141 34 -51 78 -69 172 -69 105 0
115 7 85 56 -55 91 -91 132 -130 148 -45 18 -44 18 -84 6z"/>
<path d="M1317 1789 c-65 -19 -127 -99 -127 -164 0 -37 48 -85 92 -92 65 -10
106 4 157 55 43 44 137 189 128 198 -10 10 -216 12 -250 3z"/>
<path d="M1551 1508 c-37 -25 -66 -61 -76 -94 -9 -32 62 -64 140 -64 59 0 59
0 112 57 l53 57 -61 28 c-91 41 -127 45 -168 16z"/>
<path d="M1159 1433 c-37 -31 -69 -95 -69 -138 0 -16 14 -54 30 -83 l31 -53
50 43 c59 51 79 84 79 133 0 40 -12 68 -43 103 -26 29 -39 28 -78 -5z"/>
<path d="M1372 1316 c-76 -69 -92 -145 -46 -225 15 -25 28 -47 30 -49 1 -2 29
23 62 55 74 71 85 109 53 176 -12 25 -30 52 -40 61 -18 17 -21 16 -59 -18z"/>
<path d="M1722 1258 c-34 -17 -40 -57 -12 -80 12 -10 32 -18 44 -18 23 0 106
55 106 70 0 8 -85 41 -104 39 -6 0 -21 -5 -34 -11z"/>
<path d="M917 1150 c-31 -24 -33 -39 -12 -79 26 -51 104 -64 189 -31 l28 10
-29 33 c-72 84 -128 105 -176 67z"/>
<path d="M1510 1103 c-39 -15 -140 -122 -140 -149 0 -15 150 -38 194 -30 101
19 133 144 45 175 -34 12 -74 13 -99 4z"/>
<path d="M822 948 c-15 -15 -15 -53 -1 -80 11 -20 96 -64 106 -54 3 3 2 26 -2
52 -10 71 -68 117 -103 82z"/>
<path d="M1687 898 c-17 -9 -23 -52 -11 -83 4 -9 28 -27 55 -41 l49 -24 0 44
c0 25 -5 56 -11 70 -14 30 -58 48 -82 34z"/>
<path d="M1395 868 c-41 -22 -145 -136 -145 -158 0 -10 113 -30 174 -30 26 0
61 7 77 16 36 18 74 93 64 125 -15 47 -118 76 -170 47z"/>
<path d="M573 729 c-17 -11 -50 -45 -74 -75 -50 -66 -49 -67 62 -84 87 -12
127 -2 168 41 31 34 29 91 -5 118 -35 28 -108 28 -151 0z"/>
</g>
</svg>
